<svg xmlns="http://www.w3.org/2000/svg" xmlns:xlink="http://www.w3.org/1999/xlink" width="200" zoomAndPan="magnify" viewBox="0 0 150 149.999998" height="200" preserveAspectRatio="xMidYMid meet" version="1.0"><defs><clipPath id="87370bf4e2"><path d="M 27.398438 27.398438 L 122.601562 27.398438 L 122.601562 122.601562 L 27.398438 122.601562 Z M 27.398438 27.398438 " clip-rule="nonzero"/></clipPath><clipPath id="7295d9621c"><path d="M 75 27.398438 C 48.710938 27.398438 27.398438 48.710938 27.398438 75 C 27.398438 101.289062 48.710938 122.601562 75 122.601562 C 101.289062 122.601562 122.601562 101.289062 122.601562 75 C 122.601562 48.710938 101.289062 27.398438 75 27.398438 Z M 75 27.398438 " clip-rule="nonzero"/></clipPath></defs><rect x="-15" width="180" fill="#ffffff" y="-15" height="179.999997" fill-opacity="1"/><rect x="-15" width="180" fill="#ffffff" y="-15" height="179.999997" fill-opacity="1"/><g clip-path="url(#87370bf4e2)"><g clip-path="url(#7295d9621c)"><path stroke-linecap="butt" transform="matrix(0.75, 0, 0, 0.75, 27.397445, 27.397445)" fill="none" stroke-linejoin="miter" d="M 63.470077 0.00132274 C 28.417992 0.00132274 0.00132374 28.417991 0.00132374 63.470076 C 0.00132374 98.522162 28.417992 126.93883 63.470077 126.93883 C 98.522163 126.93883 126.938831 98.522162 126.938831 63.470076 C 126.938831 28.417991 98.522163 0.00132274 63.470077 0.00132274 Z M 63.470077 0.00132274 " stroke="#000000" stroke-width="2" stroke-opacity="1" stroke-miterlimit="4"/></g></g><path fill="#000000" d="M 74.773438 61.667969 C 69.503906 61.804688 65.800781 64.375 62.542969 68.183594 C 57.804688 73.722656 52.769531 79.015625 47.820312 84.375 C 46.804688 85.476562 47.246094 86.214844 48.109375 87.0625 C 52.140625 91.019531 56.472656 94.644531 60.757812 98.324219 C 63.070312 100.3125 63.164062 100.382812 65.371094 98.332031 C 68.96875 94.984375 72.234375 91.308594 75.542969 87.679688 C 78.519531 84.40625 81.429688 81.066406 84.429688 77.8125 C 85.25 76.921875 85.546875 75.929688 85.664062 74.796875 C 85.914062 72.328125 86.011719 69.859375 85.589844 67.40625 C 85.300781 65.734375 85.15625 65.628906 83.328125 65.09375 C 82.875 65.839844 83.144531 66.679688 83.066406 67.46875 C 82.863281 69.535156 81.695312 71.046875 79.96875 71.433594 C 78.332031 71.800781 76.523438 70.949219 75.5 69.328125 C 74.617188 67.933594 74.820312 65.777344 75.980469 64.429688 C 77.03125 63.210938 78.453125 62.878906 79.960938 63.046875 C 81.398438 63.210938 81.886719 62.699219 81.78125 61.289062 C 81.644531 59.492188 81.921875 57.714844 82.347656 55.957031 C 83.808594 49.921875 91.25 47.488281 96.238281 50.496094 C 96.738281 50.800781 97.230469 51.113281 97.726562 51.421875 C 99.519531 52.523438 101.386719 53.007812 103.429688 52.148438 C 103.972656 51.925781 104.570312 51.839844 104.773438 52.511719 C 104.96875 53.160156 104.300781 53.273438 103.878906 53.445312 C 101.46875 54.417969 99.285156 53.78125 97.230469 52.453125 C 95.347656 51.230469 93.386719 50.4375 91.058594 50.589844 C 87.429688 50.820312 84.824219 52.808594 83.761719 56.269531 C 83.125 58.347656 83.042969 60.464844 83.078125 62.609375 C 83.085938 63.21875 83.277344 63.640625 83.875 63.839844 C 86.296875 64.640625 87.054688 66.539062 87.121094 68.832031 C 87.175781 70.675781 87.175781 72.523438 87.113281 74.367188 C 87.054688 76.152344 86.460938 77.660156 85.191406 79.066406 C 78.960938 85.960938 72.828125 92.9375 66.242188 99.503906 C 63.503906 102.230469 63.511719 102.21875 60.609375 99.691406 C 56.207031 95.855469 51.667969 92.164062 47.53125 88.035156 C 45.078125 85.585938 45.042969 85.507812 47.328125 82.914062 C 53.433594 75.976562 59.605469 69.105469 66.210938 62.628906 C 66.953125 61.902344 67.789062 61.546875 68.773438 61.375 C 71.460938 60.90625 74.148438 60.414062 76.835938 59.941406 C 77.167969 59.882812 77.515625 59.84375 77.851562 59.863281 C 78.265625 59.886719 78.644531 60.054688 78.632812 60.542969 C 78.625 60.957031 78.273438 61.074219 77.917969 61.136719 C 76.910156 61.304688 75.902344 61.46875 74.773438 61.667969 M 76.761719 69.117188 C 78.039062 70.214844 79.542969 70.414062 80.574219 69.625 C 81.558594 68.875 82.222656 65.933594 81.644531 64.898438 C 81.492188 64.621094 81.242188 64.46875 80.953125 64.421875 C 79.5625 64.207031 78.164062 64.246094 77.136719 65.300781 C 76.144531 66.320312 76.011719 67.605469 76.761719 69.117188 Z M 76.761719 69.117188 " fill-opacity="1" fill-rule="nonzero"/></svg>