<svg xmlns="http://www.w3.org/2000/svg" xmlns:xlink="http://www.w3.org/1999/xlink" width="200" zoomAndPan="magnify" viewBox="0 0 150 149.999998" height="200" preserveAspectRatio="xMidYMid meet" version="1.0"><defs><clipPath id="ffe9ae546e"><path d="M 27.398438 27.398438 L 122.601562 27.398438 L 122.601562 122.601562 L 27.398438 122.601562 Z M 27.398438 27.398438 " clip-rule="nonzero"/></clipPath><clipPath id="957468e8e4"><path d="M 75 27.398438 C 48.710938 27.398438 27.398438 48.710938 27.398438 75 C 27.398438 101.289062 48.710938 122.601562 75 122.601562 C 101.289062 122.601562 122.601562 101.289062 122.601562 75 C 122.601562 48.710938 101.289062 27.398438 75 27.398438 Z M 75 27.398438 " clip-rule="nonzero"/></clipPath><clipPath id="643ce335c5"><path d="M 50.074219 53 L 62 53 L 62 59 L 50.074219 59 Z M 50.074219 53 " clip-rule="nonzero"/></clipPath><clipPath id="1ba85ca1ac"><path d="M 90 84 L 99.574219 84 L 99.574219 91 L 90 91 Z M 90 84 " clip-rule="nonzero"/></clipPath></defs><rect x="-15" width="180" fill="#ffffff" y="-15" height="179.999997" fill-opacity="1"/><rect x="-15" width="180" fill="#ffffff" y="-15" height="179.999997" fill-opacity="1"/><g clip-path="url(#ffe9ae546e)"><g clip-path="url(#957468e8e4)"><path stroke-linecap="butt" transform="matrix(0.75, 0, 0, 0.75, 27.397445, 27.397442)" fill="none" stroke-linejoin="miter" d="M 63.470077 0.00132754 C 28.417992 0.00132754 0.00132374 28.417996 0.00132374 63.470081 C 0.00132374 98.522167 28.417992 126.938835 63.470077 126.938835 C 98.522163 126.938835 126.938831 98.522167 126.938831 63.470081 C 126.938831 28.417996 98.522163 0.00132754 63.470077 0.00132754 Z M 63.470077 0.00132754 " stroke="#000000" stroke-width="2" stroke-opacity="1" stroke-miterlimit="4"/></g></g><path fill="#251e1c" d="M 67.964844 65.476562 C 67.980469 66.128906 67.863281 66.667969 68.015625 67.207031 C 68.09375 67.480469 67.839844 67.699219 67.742188 67.945312 C 67.410156 68.773438 67.007812 69.566406 67.027344 70.523438 C 67.050781 71.347656 66.511719 72.046875 66.230469 72.792969 C 65.992188 73.417969 65.636719 73.984375 65.53125 74.683594 C 65.429688 75.347656 64.894531 75.636719 64.230469 75.554688 C 63.65625 75.488281 63.207031 75.078125 63.25 74.460938 C 63.316406 73.53125 63.273438 72.617188 63.621094 71.675781 C 64.269531 69.914062 65.035156 68.175781 65.351562 66.300781 C 65.464844 65.621094 65.835938 65.035156 66.234375 64.492188 C 66.691406 63.878906 67.191406 63.929688 67.625 64.574219 C 67.835938 64.882812 67.964844 65.210938 67.957031 65.472656 Z M 67.964844 65.476562 " fill-opacity="1" fill-rule="nonzero"/><path fill="#251e1c" d="M 81.933594 60.96875 C 81.289062 61.132812 80.628906 61.054688 79.976562 60.851562 C 79.753906 60.78125 79.570312 60.757812 79.339844 60.851562 C 78.652344 61.105469 77.9375 61.042969 77.214844 61.015625 C 76.820312 60.996094 76.445312 60.816406 76.027344 60.933594 C 75.195312 61.167969 74.558594 60.667969 73.957031 60.226562 C 73.5 59.890625 73.503906 59.109375 73.9375 58.796875 C 74.410156 58.457031 74.941406 58.066406 75.527344 58.148438 C 76.710938 58.332031 77.839844 57.941406 79.007812 57.945312 C 79.546875 57.945312 80.089844 57.910156 80.601562 58.058594 C 81.28125 58.253906 81.902344 58.285156 82.53125 57.894531 C 82.875 57.679688 83.308594 57.558594 83.664062 57.882812 C 84.019531 58.207031 84.183594 58.617188 83.941406 59.097656 C 83.921875 59.136719 83.929688 59.1875 83.917969 59.234375 C 83.457031 61.070312 83.382812 61.058594 81.929688 60.984375 Z M 81.933594 60.96875 " fill-opacity="1" fill-rule="nonzero"/><path fill="#251e1c" d="M 59.351562 46.914062 C 59.257812 46.023438 59.453125 45.605469 59.960938 45.34375 C 60.496094 45.070312 60.894531 45.175781 61.195312 45.71875 C 61.707031 46.65625 62.4375 47.476562 62.628906 48.578125 C 62.679688 48.855469 62.917969 49.023438 63.074219 49.246094 C 63.886719 50.375 64.578125 51.570312 64.890625 52.949219 C 64.960938 53.273438 65.160156 53.515625 65.355469 53.765625 C 65.777344 54.304688 65.746094 54.84375 65.355469 55.382812 C 65.277344 55.492188 65.214844 55.613281 65.140625 55.730469 C 64.855469 56.195312 64.410156 56.347656 64.050781 55.960938 C 63.296875 55.15625 62.320312 54.46875 62.152344 53.25 C 62.089844 52.785156 61.785156 52.421875 61.667969 52.007812 C 61.238281 50.554688 60.328125 49.359375 59.71875 48.011719 C 59.535156 47.601562 59.425781 47.160156 59.34375 46.921875 Z M 59.351562 46.914062 " fill-opacity="1" fill-rule="nonzero"/><g clip-path="url(#643ce335c5)"><path fill="#251e1c" d="M 51.414062 53.886719 C 51.738281 53.828125 52.101562 53.898438 52.421875 54.054688 C 52.90625 54.300781 53.441406 54.378906 53.929688 54.554688 C 55.316406 55.058594 56.824219 55.117188 58.160156 55.746094 C 58.992188 56.136719 59.945312 56.019531 60.75 56.453125 C 60.902344 56.539062 61.097656 56.546875 61.261719 56.617188 C 61.691406 56.8125 61.921875 57.226562 61.882812 57.714844 C 61.847656 58.167969 61.511719 58.265625 61.144531 58.371094 C 60.378906 58.59375 59.589844 58.492188 58.890625 58.285156 C 57.941406 58.007812 56.949219 58.046875 56.007812 57.765625 C 55.710938 57.675781 55.332031 57.707031 55.105469 57.53125 C 54.464844 57.023438 53.703125 56.925781 52.960938 56.847656 C 52.183594 56.765625 51.554688 56.300781 50.800781 56.144531 C 50.257812 56.027344 50.042969 55.480469 50.144531 54.957031 C 50.265625 54.328125 50.6875 53.960938 51.40625 53.875 Z M 51.414062 53.886719 " fill-opacity="1" fill-rule="nonzero"/></g><path fill="#251e1c" d="M 54.925781 69.527344 C 54.4375 69.5 54.027344 69.566406 53.675781 69.277344 C 53.230469 68.910156 53.140625 68.449219 53.480469 67.980469 C 54.121094 67.09375 54.882812 66.378906 55.890625 65.886719 C 57.101562 65.300781 58.203125 64.535156 59.15625 63.550781 C 59.523438 63.167969 60 62.878906 60.457031 62.609375 C 60.867188 62.363281 62.023438 62.683594 62.316406 63.0625 C 62.34375 63.097656 62.371094 63.136719 62.382812 63.175781 C 62.640625 63.851562 62.144531 65.136719 61.425781 65.308594 C 60.875 65.4375 60.542969 65.867188 60.027344 66.039062 C 59.65625 66.164062 59.398438 66.515625 59.203125 66.890625 C 58.917969 67.421875 58.476562 67.796875 57.929688 68.0625 C 57.6875 68.175781 57.421875 68.289062 57.246094 68.476562 C 56.589844 69.191406 55.558594 68.992188 54.921875 69.519531 Z M 54.925781 69.527344 " fill-opacity="1" fill-rule="nonzero"/><path fill="#251e1c" d="M 77.023438 46.34375 C 77.019531 46.570312 77.085938 46.835938 76.992188 47.011719 C 76.519531 47.894531 76.203125 48.847656 75.578125 49.6875 C 75.074219 50.363281 74.355469 50.84375 73.996094 51.621094 C 73.957031 51.703125 73.917969 51.816406 73.847656 51.84375 C 73 52.183594 72.796875 52.996094 72.46875 53.722656 C 72.292969 54.117188 71.945312 54.339844 71.636719 54.589844 C 71.121094 55.007812 70.53125 55.320312 70.082031 55.824219 C 69.890625 56.039062 69.601562 56.070312 69.335938 55.914062 C 69.015625 55.71875 68.953125 55.386719 69.09375 55.085938 C 69.601562 54.003906 69.902344 52.847656 70.839844 51.945312 C 71.699219 51.125 72.328125 50.039062 72.964844 49.011719 C 73.371094 48.363281 73.773438 47.730469 74.308594 47.175781 C 74.742188 46.722656 75.070312 46.179688 75.492188 45.714844 C 75.742188 45.433594 76.089844 45.320312 76.472656 45.496094 C 76.839844 45.667969 77.03125 45.933594 77.019531 46.347656 Z M 77.023438 46.34375 " fill-opacity="1" fill-rule="nonzero"/><path fill="#251e1c" d="M 78.574219 72.414062 C 78.574219 72.414062 78.535156 72.652344 78.496094 72.917969 C 78.445312 73.289062 78.375 73.683594 77.929688 73.722656 C 77.535156 73.761719 77.023438 73.78125 76.871094 73.34375 C 76.660156 72.738281 76.125 72.441406 75.742188 72.046875 C 74.84375 71.121094 74.257812 70.039062 73.722656 68.902344 C 73.578125 68.597656 73.449219 68.308594 73.132812 68.226562 C 72.457031 68.050781 72.492188 67.441406 72.277344 66.96875 C 72.023438 66.414062 71.929688 65.839844 72.089844 65.257812 C 72.28125 64.582031 72.953125 64.390625 73.453125 64.871094 C 73.84375 65.238281 74.214844 65.636719 74.523438 66.074219 C 75.378906 67.28125 76.433594 68.308594 77.367188 69.441406 C 77.988281 70.195312 78.414062 71.113281 78.566406 72.417969 Z M 78.574219 72.414062 " fill-opacity="1" fill-rule="nonzero"/><path fill="#251e1c" d="M 91.019531 76.101562 C 92.015625 76.21875 92.652344 77.535156 92.101562 78.378906 C 91.75 78.90625 91.816406 79.671875 91.160156 80.019531 C 91.09375 80.054688 91.09375 80.246094 91.09375 80.363281 C 91.09375 81.296875 90.382812 81.992188 90.269531 82.894531 C 90.257812 82.996094 90.152344 83.109375 90.0625 83.179688 C 89.085938 83.921875 88.652344 85.011719 88.191406 86.085938 C 87.8125 86.964844 87.273438 87.703125 86.417969 88.175781 C 86.191406 88.300781 85.996094 88.417969 85.753906 88.253906 C 85.453125 88.054688 85.308594 87.792969 85.398438 87.425781 C 85.503906 86.996094 85.566406 86.542969 85.730469 86.132812 C 85.949219 85.601562 86.023438 85.042969 86.125 84.488281 C 86.164062 84.253906 86.214844 83.984375 86.363281 83.808594 C 87.097656 82.933594 87.378906 81.804688 88 80.871094 C 88.722656 79.773438 89.046875 78.503906 89.582031 77.332031 C 89.800781 76.847656 90.105469 76.519531 90.515625 76.265625 C 90.679688 76.164062 90.894531 76.140625 91.023438 76.101562 Z M 91.019531 76.101562 " fill-opacity="1" fill-rule="nonzero"/><path fill="#251e1c" d="M 73.667969 99.671875 C 73.742188 99.257812 73.925781 98.894531 74.226562 98.609375 C 74.890625 97.96875 75.582031 97.355469 76.265625 96.734375 C 78.0625 96.046875 79.230469 94.394531 80.988281 93.640625 C 81.203125 93.550781 81.382812 93.375 81.632812 93.324219 C 82.117188 93.226562 82.417969 93.515625 82.328125 94.011719 C 82.234375 94.519531 81.914062 94.890625 81.550781 95.210938 C 81.28125 95.457031 80.933594 95.609375 80.921875 96.046875 C 80.921875 96.121094 80.863281 96.207031 80.808594 96.257812 C 80.269531 96.75 79.472656 97.015625 79.320312 97.871094 C 78.707031 98.246094 78.269531 98.871094 77.558594 99.121094 C 77.214844 99.238281 76.992188 99.464844 76.804688 99.828125 C 76.371094 100.652344 75.515625 100.902344 74.671875 101.027344 C 74.039062 101.117188 73.542969 100.386719 73.675781 99.671875 Z M 73.667969 99.671875 " fill-opacity="1" fill-rule="nonzero"/><path fill="#251e1c" d="M 82.058594 86.246094 C 81.929688 86.773438 81.097656 87.140625 80.554688 86.847656 C 80.171875 86.636719 79.710938 86.394531 79.519531 86.035156 C 79.125 85.304688 78.421875 84.855469 78.003906 84.148438 C 77.75 83.722656 77.394531 83.273438 76.792969 83.242188 C 76.714844 83.242188 76.636719 83.199219 76.5625 83.167969 C 76.164062 82.96875 74.699219 80.890625 74.648438 80.449219 C 74.558594 79.691406 75.289062 78.90625 76.042969 78.949219 C 76.308594 78.964844 76.511719 79.09375 76.640625 79.316406 C 77.082031 80.070312 77.789062 80.511719 78.4375 81.058594 C 79.515625 81.964844 80.527344 82.972656 81.394531 84.097656 C 81.492188 84.222656 81.648438 84.398438 81.621094 84.503906 C 81.460938 85.101562 81.5625 85.59375 82.042969 86.003906 C 82.082031 86.035156 82.058594 86.15625 82.066406 86.234375 Z M 82.058594 86.246094 " fill-opacity="1" fill-rule="nonzero"/><g clip-path="url(#1ba85ca1ac)"><path fill="#251e1c" d="M 92.882812 89.179688 C 92.371094 89.066406 91.976562 89.214844 91.695312 89.632812 C 91.300781 90.210938 90.488281 90.121094 90.164062 89.460938 C 89.882812 88.894531 90.042969 88.117188 90.625 87.886719 C 91.929688 87.363281 93.074219 86.519531 94.414062 86.082031 C 94.753906 85.96875 95.0625 85.757812 95.386719 85.605469 C 96.113281 85.257812 96.847656 84.925781 97.578125 84.585938 C 98.171875 84.3125 98.6875 84.535156 99.160156 84.875 C 99.5625 85.164062 99.472656 85.695312 98.964844 85.855469 C 98.597656 85.972656 98.414062 86.195312 98.324219 86.5 C 98.234375 86.808594 98.089844 87.019531 97.78125 87.078125 C 96.808594 87.261719 96.113281 88 95.242188 88.382812 C 94.875 88.542969 94.53125 88.769531 94.207031 88.996094 C 93.765625 89.296875 93.320312 89.371094 92.894531 89.183594 Z M 92.882812 89.179688 " fill-opacity="1" fill-rule="nonzero"/></g><path fill="#251e1c" d="M 98.519531 94.921875 C 97.910156 96.1875 97.011719 96.4375 95.851562 96.277344 C 95.15625 96.1875 94.5 96.0625 93.875 95.761719 C 92.925781 95.316406 91.953125 95.015625 90.878906 94.957031 C 90.003906 94.914062 89.3125 94.363281 88.761719 93.675781 C 88.5625 93.425781 88.648438 93.082031 88.941406 92.96875 C 89.671875 92.6875 90.472656 92.605469 91.191406 92.796875 C 91.859375 92.976562 92.527344 93.101562 93.199219 93.207031 C 94.273438 93.363281 95.347656 93.484375 96.414062 93.75 C 97.242188 93.960938 97.832031 94.429688 98.515625 94.917969 Z M 98.519531 94.921875 " fill-opacity="1" fill-rule="nonzero"/><path fill="#251e1c" d="M 75.285156 88.894531 C 76.445312 89.042969 77.609375 88.921875 78.769531 88.910156 C 79.089844 88.910156 79.417969 88.929688 79.738281 88.964844 C 80.007812 88.984375 80.199219 89.148438 80.238281 89.417969 C 80.28125 89.667969 80.210938 89.921875 79.996094 90.070312 C 79.800781 90.203125 79.574219 90.335938 79.34375 90.371094 C 78.859375 90.449219 78.410156 90.609375 77.96875 90.824219 C 77.828125 90.890625 77.632812 90.980469 77.515625 90.9375 C 76.667969 90.589844 75.898438 91.113281 75.074219 91.105469 C 74.320312 91.105469 73.566406 91.3125 72.8125 91.414062 C 72.1875 91.5 71.613281 91.339844 71.089844 90.988281 C 70.4375 90.546875 70.441406 89.808594 71.128906 89.429688 C 71.625 89.15625 72.179688 89.015625 72.746094 88.964844 C 73.589844 88.890625 74.433594 88.808594 75.285156 88.90625 Z M 75.285156 88.894531 " fill-opacity="1" fill-rule="nonzero"/><path fill="#251e1c" d="M 87.53125 100.808594 C 87.460938 101.179688 87.480469 101.53125 87.621094 101.882812 C 87.808594 102.347656 87.863281 102.8125 87.566406 103.277344 C 87.464844 103.429688 87.441406 103.667969 87.460938 103.863281 C 87.503906 104.523438 87.03125 104.660156 86.5625 104.816406 C 86.238281 104.921875 86.023438 104.796875 85.90625 104.472656 C 85.421875 103.1875 85.222656 101.871094 85.207031 100.480469 C 85.195312 99.273438 85.117188 98.058594 85.078125 96.851562 C 85.066406 96.527344 85.042969 96.199219 85.167969 95.894531 C 85.285156 95.617188 85.664062 95.523438 85.855469 95.769531 C 86.261719 96.269531 86.644531 96.789062 87.027344 97.3125 C 87.09375 97.40625 87.167969 97.539062 87.15625 97.644531 C 87.058594 98.441406 87.285156 99.15625 87.601562 99.863281 C 87.734375 100.175781 87.601562 100.503906 87.539062 100.820312 Z M 87.53125 100.808594 " fill-opacity="1" fill-rule="nonzero"/></svg>