<svg xmlns="http://www.w3.org/2000/svg" xmlns:xlink="http://www.w3.org/1999/xlink" width="200" zoomAndPan="magnify" viewBox="0 0 150 149.999998" height="200" preserveAspectRatio="xMidYMid meet" version="1.0"><defs><clipPath id="7ef912ed71"><path d="M 27.398438 27.398438 L 122.601562 27.398438 L 122.601562 122.601562 L 27.398438 122.601562 Z M 27.398438 27.398438 " clip-rule="nonzero"/></clipPath><clipPath id="a945eb2ac6"><path d="M 75 27.398438 C 48.710938 27.398438 27.398438 48.710938 27.398438 75 C 27.398438 101.289062 48.710938 122.601562 75 122.601562 C 101.289062 122.601562 122.601562 101.289062 122.601562 75 C 122.601562 48.710938 101.289062 27.398438 75 27.398438 Z M 75 27.398438 " clip-rule="nonzero"/></clipPath><clipPath id="5bd9c5404e"><path d="M 45 47.175781 L 103 47.175781 L 103 73 L 45 73 Z M 45 47.175781 " clip-rule="nonzero"/></clipPath><clipPath id="be0ddcfc10"><path d="M 47 75 L 105 75 L 105 102.675781 L 47 102.675781 Z M 47 75 " clip-rule="nonzero"/></clipPath></defs><rect x="-15" width="180" fill="#ffffff" y="-15" height="179.999997" fill-opacity="1"/><rect x="-15" width="180" fill="#ffffff" y="-15" height="179.999997" fill-opacity="1"/><g clip-path="url(#7ef912ed71)"><g clip-path="url(#a945eb2ac6)"><path stroke-linecap="butt" transform="matrix(0.75, 0, 0, 0.75, 27.397445, 27.397442)" fill="none" stroke-linejoin="miter" d="M 63.470077 0.00132754 C 28.417992 0.00132754 0.00132374 28.417996 0.00132374 63.470081 C 0.00132374 98.522167 28.417992 126.938835 63.470077 126.938835 C 98.522163 126.938835 126.938831 98.522167 126.938831 63.470081 C 126.938831 28.417996 98.522163 0.00132754 63.470077 0.00132754 Z M 63.470077 0.00132754 " stroke="#000000" stroke-width="2" stroke-opacity="1" stroke-miterlimit="4"/></g></g><path fill="#000000" d="M 93.402344 67.109375 C 93.402344 66.75 93.257812 66.605469 93.257812 66.605469 C 93.1875 66.464844 93.042969 66.320312 92.898438 66.175781 L 74.640625 55.132812 C 74.28125 54.917969 73.851562 54.917969 73.492188 55.132812 L 55.160156 66.175781 C 54.945312 66.320312 54.800781 66.535156 54.726562 66.75 C 54.726562 66.75 54.726562 66.75 54.726562 66.824219 C 54.65625 66.964844 54.65625 67.039062 54.65625 67.179688 L 54.65625 85.824219 C 54.65625 86.183594 54.871094 86.542969 55.160156 86.757812 L 73.851562 97.65625 C 73.992188 97.726562 74.136719 97.726562 74.425781 97.726562 C 74.640625 97.726562 74.855469 97.65625 74.929688 97.582031 L 92.898438 86.683594 C 93.1875 86.46875 93.402344 86.109375 93.402344 85.753906 Z M 74.066406 57.285156 L 90.3125 67.109375 L 85.351562 70.121094 L 69.035156 60.296875 Z M 66.949219 61.585938 L 83.195312 71.410156 L 81.613281 72.414062 L 65.367188 62.589844 Z M 82.621094 74.28125 L 84.058594 73.417969 L 84.058594 77.578125 L 82.621094 78.4375 Z M 63.28125 63.8125 L 79.527344 73.632812 L 74.351562 76.789062 L 57.820312 67.109375 Z M 56.742188 68.972656 L 73.273438 78.652344 L 73.273438 94.929688 L 56.742188 85.25 C 56.742188 85.25 56.742188 68.972656 56.742188 68.972656 Z M 75.429688 94.859375 L 75.429688 78.652344 L 80.464844 75.570312 L 80.464844 80.304688 C 80.464844 80.660156 80.679688 81.019531 81.039062 81.234375 C 81.183594 81.308594 81.398438 81.378906 81.542969 81.378906 C 81.757812 81.378906 81.902344 81.308594 82.117188 81.234375 L 85.710938 79.082031 C 86.070312 78.867188 86.214844 78.511719 86.214844 78.152344 L 86.214844 72.058594 L 91.246094 68.972656 L 91.246094 85.179688 Z M 75.429688 94.859375 " fill-opacity="1" fill-rule="nonzero"/><g clip-path="url(#5bd9c5404e)"><path fill="#000000" d="M 48.257812 72.628906 C 48.328125 72.628906 48.328125 72.628906 48.402344 72.628906 C 48.617188 72.628906 48.832031 72.558594 49.046875 72.414062 L 51.566406 70.480469 C 52.066406 70.121094 52.140625 69.476562 51.78125 68.972656 C 51.421875 68.472656 50.773438 68.398438 50.269531 68.757812 L 49.910156 69.046875 C 52.644531 57.5 62.921875 49.324219 74.929688 49.324219 C 87.582031 49.324219 98.21875 58.359375 100.230469 70.765625 C 100.304688 71.269531 100.808594 71.699219 101.3125 71.699219 C 101.382812 71.699219 101.453125 71.699219 101.453125 71.699219 C 102.03125 71.625 102.460938 71.054688 102.316406 70.480469 C 100.230469 56.925781 88.660156 47.175781 74.929688 47.175781 C 61.773438 47.175781 50.558594 56.210938 47.753906 68.902344 L 47.324219 68.328125 C 46.964844 67.824219 46.316406 67.753906 45.8125 68.113281 C 45.3125 68.472656 45.238281 69.1875 45.597656 69.617188 L 47.539062 72.199219 C 47.753906 72.414062 47.96875 72.558594 48.257812 72.628906 Z M 48.257812 72.628906 " fill-opacity="1" fill-rule="nonzero"/></g><g clip-path="url(#be0ddcfc10)"><path fill="#000000" d="M 104.328125 78.582031 L 102.246094 76.214844 C 101.886719 75.785156 101.167969 75.714844 100.734375 76.074219 L 98.292969 78.152344 C 97.859375 78.511719 97.789062 79.226562 98.148438 79.65625 C 98.507812 80.085938 99.226562 80.160156 99.65625 79.800781 L 100.160156 79.371094 C 98.003906 91.632812 87.4375 100.523438 74.855469 100.523438 C 62.707031 100.523438 52.140625 91.917969 49.695312 80.085938 C 49.550781 79.515625 48.976562 79.15625 48.402344 79.226562 C 47.828125 79.371094 47.46875 79.945312 47.539062 80.519531 C 50.269531 93.351562 61.773438 102.675781 74.929688 102.675781 C 88.585938 102.675781 100.089844 92.996094 102.390625 79.585938 L 102.75 80.015625 C 102.964844 80.230469 103.25 80.375 103.539062 80.375 C 103.753906 80.375 104.042969 80.304688 104.257812 80.085938 C 104.6875 79.730469 104.761719 79.011719 104.328125 78.582031 Z M 104.328125 78.582031 " fill-opacity="1" fill-rule="nonzero"/></g></svg>