<svg xmlns="http://www.w3.org/2000/svg" xmlns:xlink="http://www.w3.org/1999/xlink" width="200" zoomAndPan="magnify" viewBox="0 0 150 149.999998" height="200" preserveAspectRatio="xMidYMid meet" version="1.0"><defs><clipPath id="6355b2d6af"><path d="M 27.398438 27.398438 L 122.601562 27.398438 L 122.601562 122.601562 L 27.398438 122.601562 Z M 27.398438 27.398438 " clip-rule="nonzero"/></clipPath><clipPath id="3ecc0ed2f9"><path d="M 75 27.398438 C 48.710938 27.398438 27.398438 48.710938 27.398438 75 C 27.398438 101.289062 48.710938 122.601562 75 122.601562 C 101.289062 122.601562 122.601562 101.289062 122.601562 75 C 122.601562 48.710938 101.289062 27.398438 75 27.398438 Z M 75 27.398438 " clip-rule="nonzero"/></clipPath><clipPath id="f0202c030f"><path d="M 54 55.855469 L 86 55.855469 L 86 84 L 54 84 Z M 54 55.855469 " clip-rule="nonzero"/></clipPath><clipPath id="7640f2a818"><path d="M 86 81 L 100 81 L 100 94.105469 L 86 94.105469 Z M 86 81 " clip-rule="nonzero"/></clipPath></defs><rect x="-15" width="180" fill="#ffffff" y="-15" height="179.999997" fill-opacity="1"/><rect x="-15" width="180" fill="#ffffff" y="-15" height="179.999997" fill-opacity="1"/><g clip-path="url(#6355b2d6af)"><g clip-path="url(#3ecc0ed2f9)"><path stroke-linecap="butt" transform="matrix(0.75, 0, 0, 0.75, 27.397445, 27.397442)" fill="none" stroke-linejoin="miter" d="M 63.470077 0.00132754 C 28.417992 0.00132754 0.00132374 28.417996 0.00132374 63.470081 C 0.00132374 98.522167 28.417992 126.938835 63.470077 126.938835 C 98.522163 126.938835 126.938831 98.522167 126.938831 63.470081 C 126.938831 28.417996 98.522163 0.00132754 63.470077 0.00132754 Z M 63.470077 0.00132754 " stroke="#000000" stroke-width="2" stroke-opacity="1" stroke-miterlimit="4"/></g></g><path fill="#363336" d="M 55.675781 68.320312 L 45.9375 68.320312 C 45.429688 68.320312 45.023438 67.914062 45.023438 67.410156 C 45.023438 66.902344 45.429688 66.496094 45.9375 66.496094 L 55.675781 66.496094 C 56.179688 66.496094 56.585938 66.902344 56.585938 67.410156 C 56.585938 67.914062 56.179688 68.320312 55.675781 68.320312 Z M 55.675781 68.320312 " fill-opacity="1" fill-rule="nonzero"/><path fill="#363336" d="M 55.675781 73.1875 L 49.589844 73.1875 C 49.082031 73.1875 48.675781 72.777344 48.675781 72.273438 C 48.675781 71.769531 49.082031 71.359375 49.589844 71.359375 L 55.675781 71.359375 C 56.179688 71.359375 56.585938 71.769531 56.585938 72.273438 C 56.585938 72.777344 56.179688 73.1875 55.675781 73.1875 Z M 55.675781 73.1875 " fill-opacity="1" fill-rule="nonzero"/><path fill="#363336" d="M 55.675781 78.050781 L 53.238281 78.050781 C 52.734375 78.050781 52.328125 77.644531 52.328125 77.136719 C 52.328125 76.632812 52.734375 76.226562 53.238281 76.226562 L 55.675781 76.226562 C 56.179688 76.226562 56.585938 76.632812 56.585938 77.136719 C 56.585938 77.644531 56.179688 78.050781 55.675781 78.050781 Z M 55.675781 78.050781 " fill-opacity="1" fill-rule="nonzero"/><path fill="#363336" d="M 101.605469 88.242188 L 99.183594 88.242188 C 98.675781 88.242188 98.269531 87.835938 98.269531 87.332031 C 98.269531 86.824219 98.675781 86.417969 99.183594 86.417969 L 101.605469 86.417969 C 102.457031 86.417969 103.152344 85.726562 103.152344 84.875 L 103.152344 78.730469 C 103.152344 77.230469 102.609375 75.769531 101.636719 74.632812 L 95.578125 67.574219 C 94.574219 66.398438 93.113281 65.730469 91.566406 65.730469 L 84.617188 65.730469 C 84.113281 65.730469 83.703125 65.324219 83.703125 64.816406 C 83.703125 64.3125 84.113281 63.90625 84.617188 63.90625 L 91.566406 63.90625 C 93.648438 63.90625 95.617188 64.8125 96.964844 66.386719 L 103.023438 73.445312 C 104.28125 74.917969 104.984375 76.796875 104.984375 78.730469 L 104.984375 84.875 C 104.984375 86.726562 103.472656 88.242188 101.609375 88.242188 Z M 101.605469 88.242188 " fill-opacity="1" fill-rule="nonzero"/><path fill="#363336" d="M 87.378906 88.242188 L 75.164062 88.242188 C 74.660156 88.242188 74.25 87.835938 74.25 87.332031 C 74.25 86.824219 74.660156 86.417969 75.164062 86.417969 L 87.378906 86.417969 C 87.886719 86.417969 88.292969 86.824219 88.292969 87.332031 C 88.292969 87.835938 87.886719 88.242188 87.378906 88.242188 Z M 87.378906 88.242188 " fill-opacity="1" fill-rule="nonzero"/><path fill="#363336" d="M 63.34375 88.242188 L 58.804688 88.242188 C 56.460938 88.242188 54.554688 86.339844 54.554688 83.996094 L 54.554688 80.726562 C 54.554688 80.222656 54.960938 79.8125 55.46875 79.8125 C 55.972656 79.8125 56.382812 80.222656 56.382812 80.726562 L 56.382812 83.996094 C 56.382812 85.335938 57.46875 86.417969 58.804688 86.417969 L 63.34375 86.417969 C 63.847656 86.417969 64.257812 86.824219 64.257812 87.332031 C 64.257812 87.835938 63.847656 88.242188 63.34375 88.242188 Z M 63.34375 88.242188 " fill-opacity="1" fill-rule="nonzero"/><g clip-path="url(#f0202c030f)"><path fill="#363336" d="M 84.128906 83.523438 C 83.625 83.523438 83.21875 83.117188 83.21875 82.609375 L 83.21875 60.097656 C 83.21875 58.761719 82.128906 57.679688 80.792969 57.679688 L 58.796875 57.679688 C 57.457031 57.679688 56.375 58.765625 56.375 60.097656 L 56.375 63.90625 C 56.375 64.410156 55.96875 64.816406 55.460938 64.816406 C 54.957031 64.816406 54.546875 64.410156 54.546875 63.90625 L 54.546875 60.097656 C 54.546875 57.757812 56.453125 55.855469 58.796875 55.855469 L 80.789062 55.855469 C 83.132812 55.855469 85.035156 57.757812 85.035156 60.097656 L 85.035156 82.609375 C 85.035156 83.117188 84.628906 83.523438 84.125 83.523438 Z M 84.128906 83.523438 " fill-opacity="1" fill-rule="nonzero"/></g><path fill="#363336" d="M 69.152344 93.902344 C 65.582031 93.902344 62.6875 91.007812 62.6875 87.445312 C 62.6875 83.882812 65.582031 80.988281 69.152344 80.988281 C 72.71875 80.988281 75.613281 83.882812 75.613281 87.445312 C 75.613281 91.007812 72.71875 93.902344 69.152344 93.902344 Z M 69.152344 82.8125 C 66.59375 82.8125 64.511719 84.890625 64.511719 87.445312 C 64.511719 90 66.59375 92.078125 69.152344 92.078125 C 71.707031 92.078125 73.789062 90 73.789062 87.445312 C 73.789062 84.890625 71.707031 82.8125 69.152344 82.8125 Z M 69.152344 82.8125 " fill-opacity="1" fill-rule="nonzero"/><g clip-path="url(#7640f2a818)"><path fill="#363336" d="M 93.242188 94.097656 C 89.675781 94.097656 86.777344 91.203125 86.777344 87.640625 C 86.777344 84.078125 89.675781 81.183594 93.242188 81.183594 C 96.808594 81.183594 99.707031 84.078125 99.707031 87.640625 C 99.707031 91.203125 96.808594 94.097656 93.242188 94.097656 Z M 93.242188 83.007812 C 90.683594 83.007812 88.605469 85.085938 88.605469 87.640625 C 88.605469 90.195312 90.683594 92.273438 93.242188 92.273438 C 95.796875 92.273438 97.878906 90.195312 97.878906 87.640625 C 97.878906 85.085938 95.796875 83.007812 93.242188 83.007812 Z M 93.242188 83.007812 " fill-opacity="1" fill-rule="nonzero"/></g><path fill="#363336" d="M 103.917969 78.214844 L 96.046875 78.214844 C 94.160156 78.214844 92.628906 76.683594 92.628906 74.796875 L 92.628906 69.332031 C 92.628906 68.824219 93.035156 68.417969 93.539062 68.417969 C 94.046875 68.417969 94.453125 68.824219 94.453125 69.332031 L 94.453125 74.796875 C 94.453125 75.671875 95.164062 76.390625 96.046875 76.390625 L 103.917969 76.390625 C 104.421875 76.390625 104.832031 76.796875 104.832031 77.300781 C 104.832031 77.808594 104.421875 78.214844 103.917969 78.214844 Z M 103.917969 78.214844 " fill-opacity="1" fill-rule="nonzero"/></svg>