<svg xmlns="http://www.w3.org/2000/svg" xmlns:xlink="http://www.w3.org/1999/xlink" width="200" zoomAndPan="magnify" viewBox="0 0 150 149.999998" height="200" preserveAspectRatio="xMidYMid meet" version="1.0"><defs><clipPath id="9d45c299fb"><path d="M 27.398438 27.398438 L 122.601562 27.398438 L 122.601562 122.601562 L 27.398438 122.601562 Z M 27.398438 27.398438 " clip-rule="nonzero"/></clipPath><clipPath id="ab0b89db5b"><path d="M 75 27.398438 C 48.710938 27.398438 27.398438 48.710938 27.398438 75 C 27.398438 101.289062 48.710938 122.601562 75 122.601562 C 101.289062 122.601562 122.601562 101.289062 122.601562 75 C 122.601562 48.710938 101.289062 27.398438 75 27.398438 Z M 75 27.398438 " clip-rule="nonzero"/></clipPath><clipPath id="6be74c6b5b"><path d="M 45 46.527344 L 105 46.527344 L 105 103 L 45 103 Z M 45 46.527344 " clip-rule="nonzero"/></clipPath><clipPath id="da6ce52986"><path d="M 53 96 L 56 96 L 56 103.527344 L 53 103.527344 Z M 53 96 " clip-rule="nonzero"/></clipPath></defs><rect x="-15" width="180" fill="#ffffff" y="-15" height="179.999997" fill-opacity="1"/><rect x="-15" width="180" fill="#ffffff" y="-15" height="179.999997" fill-opacity="1"/><g clip-path="url(#9d45c299fb)"><g clip-path="url(#ab0b89db5b)"><path stroke-linecap="butt" transform="matrix(0.75, 0, 0, 0.75, 27.397445, 27.397442)" fill="none" stroke-linejoin="miter" d="M 63.470077 0.00132754 C 28.417992 0.00132754 0.00132374 28.417996 0.00132374 63.470081 C 0.00132374 98.522167 28.417992 126.938835 63.470077 126.938835 C 98.522163 126.938835 126.938831 98.522167 126.938831 63.470081 C 126.938831 28.417996 98.522163 0.00132754 63.470077 0.00132754 Z M 63.470077 0.00132754 " stroke="#000000" stroke-width="2" stroke-opacity="1" stroke-miterlimit="4"/></g></g><g clip-path="url(#6be74c6b5b)"><path fill="#000000" d="M 45.496094 66.214844 L 64.273438 77.316406 L 63.785156 85.972656 C 63.785156 86.246094 63.878906 86.484375 64.066406 86.683594 C 64.253906 86.882812 64.484375 86.992188 64.757812 87.007812 L 72.496094 87.183594 L 84.03125 101.746094 C 84.234375 101.996094 84.496094 102.121094 84.816406 102.128906 L 84.984375 102.128906 C 85.363281 102.054688 85.621094 101.839844 85.757812 101.476562 L 104.9375 47.824219 C 104.941406 47.773438 104.941406 47.726562 104.9375 47.679688 C 104.941406 47.636719 104.941406 47.59375 104.9375 47.554688 C 104.957031 47.4375 104.957031 47.320312 104.9375 47.203125 C 104.910156 47.078125 104.859375 46.960938 104.78125 46.859375 L 104.691406 46.757812 L 104.585938 46.652344 L 104.523438 46.652344 L 104.390625 46.589844 C 104.324219 46.5625 104.253906 46.539062 104.183594 46.527344 L 104.046875 46.527344 C 103.953125 46.507812 103.855469 46.507812 103.757812 46.527344 L 103.675781 46.527344 L 45.746094 64.382812 C 45.339844 64.519531 45.109375 64.796875 45.050781 65.21875 C 44.996094 65.644531 45.144531 65.976562 45.496094 66.214844 Z M 65.835938 85.050781 L 66.164062 79.242188 L 70.863281 85.175781 Z M 84.457031 99.050781 L 67.042969 77.140625 L 101.898438 50.351562 Z M 98.9375 50.082031 L 65.554688 75.761719 L 48.457031 65.644531 Z M 98.9375 50.082031 " fill-opacity="1" fill-rule="nonzero"/></g><path fill="#000000" d="M 55.035156 93.160156 L 55.25 93.160156 C 55.480469 93.152344 55.6875 93.078125 55.867188 92.933594 C 56.046875 92.789062 56.167969 92.605469 56.222656 92.382812 C 57.007812 89.011719 58.472656 85.964844 60.621094 83.25 C 60.785156 83.039062 60.855469 82.800781 60.835938 82.535156 C 60.816406 82.269531 60.710938 82.046875 60.515625 81.863281 C 60.300781 81.699219 60.054688 81.632812 59.78125 81.660156 C 59.511719 81.691406 59.289062 81.808594 59.109375 82.015625 C 56.761719 84.96875 55.164062 88.28125 54.308594 91.957031 C 54.257812 92.222656 54.300781 92.46875 54.4375 92.699219 C 54.578125 92.929688 54.777344 93.085938 55.035156 93.160156 Z M 55.035156 93.160156 " fill-opacity="1" fill-rule="nonzero"/><g clip-path="url(#da6ce52986)"><path fill="#000000" d="M 53.648438 96.9375 L 53.648438 102.117188 C 53.605469 102.273438 53.601562 102.429688 53.632812 102.589844 C 53.664062 102.746094 53.726562 102.890625 53.824219 103.019531 C 53.921875 103.144531 54.042969 103.246094 54.1875 103.316406 C 54.332031 103.386719 54.484375 103.425781 54.648438 103.425781 C 54.808594 103.425781 54.960938 103.386719 55.105469 103.316406 C 55.25 103.246094 55.371094 103.144531 55.46875 103.019531 C 55.566406 102.890625 55.628906 102.746094 55.660156 102.589844 C 55.691406 102.429688 55.6875 102.273438 55.644531 102.117188 L 55.644531 96.9375 C 55.582031 96.714844 55.460938 96.53125 55.273438 96.386719 C 55.089844 96.246094 54.878906 96.175781 54.648438 96.175781 C 54.414062 96.175781 54.203125 96.246094 54.019531 96.386719 C 53.832031 96.53125 53.710938 96.714844 53.648438 96.9375 Z M 53.648438 96.9375 " fill-opacity="1" fill-rule="nonzero"/></g></svg>