<svg xmlns="http://www.w3.org/2000/svg" xmlns:xlink="http://www.w3.org/1999/xlink" width="340" zoomAndPan="magnify" viewBox="0 0 255 74.999997" height="100" preserveAspectRatio="xMidYMid meet" version="1.0"><defs><g/><clipPath id="4d2a6990df"><path d="M 55.726562 34.320312 L 186.402344 34.320312 L 186.402344 40.679688 L 55.726562 40.679688 Z M 55.726562 34.320312 " clip-rule="nonzero"/></clipPath></defs><rect x="-25.5" width="306" fill="#ffffff" y="-7.5" height="89.999996" fill-opacity="1"/><rect x="-25.5" width="306" fill="#ffffff" y="-7.5" height="89.999996" fill-opacity="1"/><g fill="#000000" fill-opacity="1"><g transform="translate(49.357972, 45.527112)"><g><path d="M 7.609375 -20.625 C 7.585938 -20.625 7.570312 -20.632812 7.5625 -20.65625 C 7.519531 -20.675781 7.507812 -20.703125 7.53125 -20.734375 L 8.25 -22.609375 C 8.25 -22.628906 8.269531 -22.640625 8.3125 -22.640625 L 9.796875 -22.640625 C 9.828125 -22.640625 9.851562 -22.628906 9.875 -22.609375 C 9.875 -22.578125 9.863281 -22.550781 9.84375 -22.53125 L 7.640625 -20.65625 C 7.640625 -20.632812 7.628906 -20.625 7.609375 -20.625 Z M 13.90625 -1.765625 C 13.925781 -1.742188 13.945312 -1.722656 13.96875 -1.703125 C 13.96875 -1.679688 13.96875 -1.664062 13.96875 -1.65625 L 13.15625 0.03125 C 13.132812 0.0507812 13.125 0.0625 13.125 0.0625 C 13.101562 0.0703125 13.082031 0.078125 13.0625 0.078125 L 1.375 0.078125 C 1.332031 0.078125 1.296875 0.078125 1.265625 0.078125 C 1.242188 0.078125 1.210938 0.078125 1.171875 0.078125 C 1.117188 0.078125 1.09375 0.0507812 1.09375 0 C 1.09375 -0.0507812 1.117188 -0.078125 1.171875 -0.078125 L 1.34375 -0.078125 C 1.695312 -0.117188 1.992188 -0.273438 2.234375 -0.546875 C 2.484375 -0.816406 2.609375 -1.140625 2.609375 -1.515625 L 2.609375 -6.828125 C 2.609375 -7.628906 2.859375 -8.335938 3.359375 -8.953125 C 3.859375 -9.566406 4.492188 -9.957031 5.265625 -10.125 C 4.492188 -10.289062 3.859375 -10.679688 3.359375 -11.296875 C 2.859375 -11.921875 2.609375 -12.625 2.609375 -13.40625 L 2.609375 -16.203125 C 2.609375 -16.953125 2.828125 -17.617188 3.265625 -18.203125 C 3.703125 -18.785156 4.273438 -19.191406 4.984375 -19.421875 L 1.171875 -19.421875 C 1.117188 -19.421875 1.09375 -19.445312 1.09375 -19.5 C 1.09375 -19.539062 1.117188 -19.5625 1.171875 -19.5625 L 12.515625 -19.5625 C 12.515625 -19.5625 12.519531 -19.5625 12.53125 -19.5625 C 12.550781 -19.539062 12.5625 -19.53125 12.5625 -19.53125 L 13.375 -17.859375 C 13.375 -17.835938 13.375 -17.816406 13.375 -17.796875 C 13.375 -17.773438 13.363281 -17.753906 13.34375 -17.734375 C 13.332031 -17.734375 13.328125 -17.734375 13.328125 -17.734375 C 13.285156 -17.734375 13.253906 -17.742188 13.234375 -17.765625 C 13.085938 -18.085938 12.660156 -18.367188 11.953125 -18.609375 C 11.253906 -18.847656 10.378906 -19.039062 9.328125 -19.1875 C 8.273438 -19.34375 7.148438 -19.421875 5.953125 -19.421875 C 5.941406 -19.421875 5.921875 -19.421875 5.890625 -19.421875 C 5.859375 -19.421875 5.835938 -19.421875 5.828125 -19.421875 C 5.453125 -19.378906 5.140625 -19.21875 4.890625 -18.9375 C 4.648438 -18.664062 4.53125 -18.34375 4.53125 -17.96875 L 4.53125 -11.640625 C 4.53125 -11.265625 4.648438 -10.941406 4.890625 -10.671875 C 5.140625 -10.398438 5.453125 -10.25 5.828125 -10.21875 C 5.835938 -10.21875 5.859375 -10.210938 5.890625 -10.203125 C 5.921875 -10.191406 5.941406 -10.1875 5.953125 -10.1875 L 8.53125 -10.1875 C 8.59375 -10.1875 8.625 -10.164062 8.625 -10.125 C 8.625 -10.070312 8.59375 -10.046875 8.53125 -10.046875 L 5.953125 -10.046875 C 5.941406 -10.046875 5.921875 -10.046875 5.890625 -10.046875 C 5.859375 -10.046875 5.835938 -10.046875 5.828125 -10.046875 C 5.453125 -10.003906 5.140625 -9.84375 4.890625 -9.5625 C 4.648438 -9.289062 4.53125 -8.96875 4.53125 -8.59375 L 4.53125 -3.28125 C 4.53125 -2.550781 4.3125 -1.890625 3.875 -1.296875 C 3.4375 -0.710938 2.875 -0.304688 2.1875 -0.078125 L 6.546875 -0.078125 C 7.742188 -0.078125 8.867188 -0.148438 9.921875 -0.296875 C 10.972656 -0.453125 11.847656 -0.648438 12.546875 -0.890625 C 13.242188 -1.140625 13.671875 -1.410156 13.828125 -1.703125 C 13.847656 -1.765625 13.875 -1.785156 13.90625 -1.765625 Z M 13.90625 -1.765625 "/></g></g></g><g fill="#000000" fill-opacity="1"><g transform="translate(80.623339, 45.527112)"><g><path d="M 11.21875 -19.703125 C 10.195312 -19.679688 9.222656 -19.410156 8.296875 -18.890625 C 7.367188 -18.367188 6.550781 -17.640625 5.84375 -16.703125 C 5.113281 -15.773438 4.554688 -14.710938 4.171875 -13.515625 C 3.796875 -12.316406 3.609375 -11.054688 3.609375 -9.734375 C 3.609375 -8.429688 3.796875 -7.175781 4.171875 -5.96875 C 4.554688 -4.769531 5.113281 -3.703125 5.84375 -2.765625 C 6.550781 -1.835938 7.367188 -1.113281 8.296875 -0.59375 C 9.222656 -0.0820312 10.1875 0.1875 11.1875 0.21875 L 11.25 0.21875 C 11.320312 0.21875 11.378906 0.21875 11.421875 0.21875 C 11.441406 0.21875 11.46875 0.21875 11.5 0.21875 C 11.539062 0.21875 11.566406 0.21875 11.578125 0.21875 C 13.054688 0.164062 14.398438 -0.359375 15.609375 -1.359375 C 16.828125 -2.359375 17.753906 -3.6875 18.390625 -5.34375 C 18.398438 -5.382812 18.425781 -5.40625 18.46875 -5.40625 C 18.507812 -5.40625 18.53125 -5.382812 18.53125 -5.34375 L 19.25 -3.421875 C 19.269531 -3.398438 19.269531 -3.378906 19.25 -3.359375 C 18.320312 -2.203125 17.1875 -1.296875 15.84375 -0.640625 C 14.5 0.00390625 13.085938 0.335938 11.609375 0.359375 L 11.5625 0.359375 C 11.519531 0.359375 11.472656 0.359375 11.421875 0.359375 C 11.359375 0.359375 11.289062 0.359375 11.21875 0.359375 C 9.894531 0.335938 8.617188 0.0664062 7.390625 -0.453125 C 6.171875 -0.972656 5.109375 -1.707031 4.203125 -2.65625 C 3.265625 -3.601562 2.539062 -4.6875 2.03125 -5.90625 C 1.53125 -7.132812 1.28125 -8.410156 1.28125 -9.734375 C 1.28125 -11.054688 1.53125 -12.332031 2.03125 -13.5625 C 2.539062 -14.800781 3.265625 -15.894531 4.203125 -16.84375 C 5.109375 -17.78125 6.164062 -18.515625 7.375 -19.046875 C 8.59375 -19.578125 9.863281 -19.851562 11.1875 -19.875 L 11.28125 -19.875 C 11.3125 -19.875 11.359375 -19.875 11.421875 -19.875 C 11.453125 -19.875 11.515625 -19.875 11.609375 -19.875 C 13.085938 -19.832031 14.492188 -19.488281 15.828125 -18.84375 C 17.160156 -18.195312 18.300781 -17.296875 19.25 -16.140625 C 19.269531 -16.128906 19.269531 -16.101562 19.25 -16.0625 L 18.53125 -14.125 C 18.53125 -14.113281 18.507812 -14.109375 18.46875 -14.109375 C 18.425781 -14.109375 18.398438 -14.113281 18.390625 -14.125 C 17.753906 -15.8125 16.828125 -17.148438 15.609375 -18.140625 C 14.398438 -19.140625 13.066406 -19.660156 11.609375 -19.703125 L 11.5625 -19.734375 C 11.519531 -19.734375 11.472656 -19.734375 11.421875 -19.734375 C 11.359375 -19.734375 11.289062 -19.722656 11.21875 -19.703125 Z M 11.21875 -19.703125 "/></g></g></g><g fill="#000000" fill-opacity="1"><g transform="translate(117.766359, 45.527112)"><g><path d="M 12.65625 -1.765625 C 12.664062 -1.742188 12.679688 -1.722656 12.703125 -1.703125 C 12.703125 -1.679688 12.703125 -1.664062 12.703125 -1.65625 L 11.890625 0.03125 C 11.867188 0.0507812 11.859375 0.0625 11.859375 0.0625 C 11.847656 0.0703125 11.832031 0.078125 11.8125 0.078125 L 1.453125 0.078125 C 1.421875 0.078125 1.390625 0.078125 1.359375 0.078125 C 1.328125 0.078125 1.296875 0.078125 1.265625 0.078125 C 1.203125 0.078125 1.171875 0.0507812 1.171875 0 C 1.171875 -0.0507812 1.203125 -0.078125 1.265625 -0.078125 L 1.421875 -0.078125 C 1.773438 -0.117188 2.070312 -0.273438 2.3125 -0.546875 C 2.5625 -0.816406 2.6875 -1.140625 2.6875 -1.515625 L 2.6875 -16.203125 C 2.6875 -16.953125 2.90625 -17.617188 3.34375 -18.203125 C 3.78125 -18.785156 4.351562 -19.191406 5.0625 -19.421875 L 1.265625 -19.421875 C 1.203125 -19.421875 1.171875 -19.445312 1.171875 -19.5 C 1.171875 -19.539062 1.203125 -19.5625 1.265625 -19.5625 L 6.046875 -19.5625 C 6.078125 -19.5625 6.09375 -19.5625 6.09375 -19.5625 C 6.113281 -19.539062 6.125 -19.519531 6.125 -19.5 C 6.125 -19.488281 6.113281 -19.472656 6.09375 -19.453125 C 6.09375 -19.429688 6.078125 -19.421875 6.046875 -19.421875 C 6.023438 -19.421875 6 -19.421875 5.96875 -19.421875 C 5.945312 -19.421875 5.925781 -19.421875 5.90625 -19.421875 C 5.53125 -19.378906 5.222656 -19.21875 4.984375 -18.9375 C 4.742188 -18.664062 4.625 -18.34375 4.625 -17.96875 L 4.625 -3.28125 C 4.625 -2.550781 4.398438 -1.890625 3.953125 -1.296875 C 3.515625 -0.710938 2.953125 -0.304688 2.265625 -0.078125 L 5.28125 -0.078125 C 6.476562 -0.078125 7.601562 -0.148438 8.65625 -0.296875 C 9.71875 -0.453125 10.597656 -0.648438 11.296875 -0.890625 C 11.992188 -1.140625 12.414062 -1.410156 12.5625 -1.703125 C 12.5625 -1.722656 12.570312 -1.742188 12.59375 -1.765625 C 12.613281 -1.765625 12.632812 -1.765625 12.65625 -1.765625 Z M 12.65625 -1.765625 "/></g></g></g><g fill="#000000" fill-opacity="1"><g transform="translate(147.464354, 45.527112)"><g><path d="M 20.703125 -0.078125 C 20.742188 -0.078125 20.765625 -0.0507812 20.765625 0 C 20.765625 0.0507812 20.742188 0.078125 20.703125 0.078125 L 15.890625 0.078125 C 15.835938 0.078125 15.8125 0.0507812 15.8125 0 C 15.8125 -0.0507812 15.835938 -0.078125 15.890625 -0.078125 C 16.171875 -0.078125 16.414062 -0.175781 16.625 -0.375 C 16.832031 -0.570312 16.9375 -0.820312 16.9375 -1.125 C 16.914062 -1.3125 16.867188 -1.476562 16.796875 -1.625 L 9.90625 -17.34375 L 5.375 -6.328125 L 12.234375 -6.328125 C 12.285156 -6.328125 12.3125 -6.296875 12.3125 -6.234375 C 12.3125 -6.179688 12.285156 -6.15625 12.234375 -6.15625 L 5.28125 -6.15625 L 3.671875 -2.203125 C 3.671875 -2.191406 3.671875 -2.1875 3.671875 -2.1875 C 3.648438 -2.164062 3.648438 -2.164062 3.671875 -2.1875 L 2.9375 -0.46875 C 2.9375 -0.4375 2.914062 -0.421875 2.875 -0.421875 C 2.863281 -0.421875 2.859375 -0.421875 2.859375 -0.421875 C 2.796875 -0.441406 2.773438 -0.476562 2.796875 -0.53125 L 3.140625 -1.3125 C 2.648438 -0.695312 2.03125 -0.285156 1.28125 -0.078125 L 5.03125 -0.078125 C 5.09375 -0.078125 5.125 -0.0507812 5.125 0 C 5.125 0.0507812 5.09375 0.078125 5.03125 0.078125 L 0.25 0.078125 C 0.226562 0.078125 0.210938 0.0703125 0.203125 0.0625 C 0.179688 0.0390625 0.171875 0.0195312 0.171875 0 C 0.171875 -0.0195312 0.179688 -0.0390625 0.203125 -0.0625 C 0.210938 -0.0703125 0.226562 -0.078125 0.25 -0.078125 C 0.957031 -0.078125 1.609375 -0.273438 2.203125 -0.671875 C 2.804688 -1.066406 3.25 -1.585938 3.53125 -2.234375 L 10.75 -19.734375 L 10.78125 -19.8125 C 10.78125 -19.832031 10.785156 -19.84375 10.796875 -19.84375 C 10.816406 -19.863281 10.847656 -19.875 10.890625 -19.875 C 10.890625 -19.851562 10.890625 -19.84375 10.890625 -19.84375 C 10.898438 -19.84375 10.90625 -19.832031 10.90625 -19.8125 L 18.109375 -3.390625 C 18.253906 -3.066406 18.328125 -2.726562 18.328125 -2.375 C 18.328125 -1.851562 18.179688 -1.378906 17.890625 -0.953125 C 17.609375 -0.535156 17.222656 -0.242188 16.734375 -0.078125 Z M 20.703125 -0.078125 "/></g></g></g><g fill="#000000" fill-opacity="1"><g transform="translate(185.139152, 45.527112)"><g><path d="M 11.21875 -19.703125 C 10.195312 -19.679688 9.222656 -19.410156 8.296875 -18.890625 C 7.367188 -18.367188 6.550781 -17.640625 5.84375 -16.703125 C 5.113281 -15.773438 4.554688 -14.710938 4.171875 -13.515625 C 3.796875 -12.316406 3.609375 -11.054688 3.609375 -9.734375 C 3.609375 -8.429688 3.796875 -7.175781 4.171875 -5.96875 C 4.554688 -4.769531 5.113281 -3.703125 5.84375 -2.765625 C 6.550781 -1.835938 7.367188 -1.113281 8.296875 -0.59375 C 9.222656 -0.0820312 10.1875 0.1875 11.1875 0.21875 L 11.25 0.21875 C 11.320312 0.21875 11.378906 0.21875 11.421875 0.21875 C 11.441406 0.21875 11.46875 0.21875 11.5 0.21875 C 11.539062 0.21875 11.566406 0.21875 11.578125 0.21875 C 13.054688 0.164062 14.398438 -0.359375 15.609375 -1.359375 C 16.828125 -2.359375 17.753906 -3.6875 18.390625 -5.34375 C 18.398438 -5.382812 18.425781 -5.40625 18.46875 -5.40625 C 18.507812 -5.40625 18.53125 -5.382812 18.53125 -5.34375 L 19.25 -3.421875 C 19.269531 -3.398438 19.269531 -3.378906 19.25 -3.359375 C 18.320312 -2.203125 17.1875 -1.296875 15.84375 -0.640625 C 14.5 0.00390625 13.085938 0.335938 11.609375 0.359375 L 11.5625 0.359375 C 11.519531 0.359375 11.472656 0.359375 11.421875 0.359375 C 11.359375 0.359375 11.289062 0.359375 11.21875 0.359375 C 9.894531 0.335938 8.617188 0.0664062 7.390625 -0.453125 C 6.171875 -0.972656 5.109375 -1.707031 4.203125 -2.65625 C 3.265625 -3.601562 2.539062 -4.6875 2.03125 -5.90625 C 1.53125 -7.132812 1.28125 -8.410156 1.28125 -9.734375 C 1.28125 -11.054688 1.53125 -12.332031 2.03125 -13.5625 C 2.539062 -14.800781 3.265625 -15.894531 4.203125 -16.84375 C 5.109375 -17.78125 6.164062 -18.515625 7.375 -19.046875 C 8.59375 -19.578125 9.863281 -19.851562 11.1875 -19.875 L 11.28125 -19.875 C 11.3125 -19.875 11.359375 -19.875 11.421875 -19.875 C 11.453125 -19.875 11.515625 -19.875 11.609375 -19.875 C 13.085938 -19.832031 14.492188 -19.488281 15.828125 -18.84375 C 17.160156 -18.195312 18.300781 -17.296875 19.25 -16.140625 C 19.269531 -16.128906 19.269531 -16.101562 19.25 -16.0625 L 18.53125 -14.125 C 18.53125 -14.113281 18.507812 -14.109375 18.46875 -14.109375 C 18.425781 -14.109375 18.398438 -14.113281 18.390625 -14.125 C 17.753906 -15.8125 16.828125 -17.148438 15.609375 -18.140625 C 14.398438 -19.140625 13.066406 -19.660156 11.609375 -19.703125 L 11.5625 -19.734375 C 11.519531 -19.734375 11.472656 -19.734375 11.421875 -19.734375 C 11.359375 -19.734375 11.289062 -19.722656 11.21875 -19.703125 Z M 11.21875 -19.703125 "/></g></g></g><g clip-path="url(#4d2a6990df)"><path fill="#ffffff" d="M 55.726562 34.320312 L 186.390625 34.320312 L 186.390625 40.679688 L 55.726562 40.679688 Z M 55.726562 34.320312 " fill-opacity="1" fill-rule="nonzero"/></g><g fill="#000000" fill-opacity="1"><g transform="translate(78.277857, 39.53327)"><g><path d="M 2.46875 0 L 0.484375 0 L 0.5 -0.078125 L 0.59375 -0.078125 C 0.738281 -0.078125 0.859375 -0.125 0.953125 -0.21875 C 1.054688 -0.320312 1.109375 -0.445312 1.109375 -0.59375 L 1.109375 -5.109375 C 1.109375 -5.253906 1.054688 -5.375 0.953125 -5.46875 C 0.859375 -5.5625 0.738281 -5.609375 0.59375 -5.609375 L 0.5 -5.609375 L 0.484375 -5.703125 L 2.109375 -5.703125 C 2.671875 -5.703125 3.101562 -5.578125 3.40625 -5.328125 C 3.71875 -5.078125 3.875 -4.75 3.875 -4.34375 C 3.875 -4.007812 3.785156 -3.734375 3.609375 -3.515625 C 3.441406 -3.304688 3.234375 -3.164062 2.984375 -3.09375 C 3.410156 -3.03125 3.75 -2.851562 4 -2.5625 C 4.25 -2.28125 4.375 -1.921875 4.375 -1.484375 C 4.375 -1.046875 4.207031 -0.6875 3.875 -0.40625 C 3.539062 -0.132812 3.070312 0 2.46875 0 Z M 1.640625 -0.296875 L 2.4375 -0.296875 C 2.445312 -0.296875 2.453125 -0.296875 2.453125 -0.296875 C 2.867188 -0.296875 3.191406 -0.40625 3.421875 -0.625 C 3.648438 -0.851562 3.765625 -1.175781 3.765625 -1.59375 C 3.765625 -1.820312 3.722656 -2.023438 3.640625 -2.203125 C 3.566406 -2.378906 3.46875 -2.519531 3.34375 -2.625 C 3.03125 -2.882812 2.554688 -3.015625 1.921875 -3.015625 L 1.921875 -3.078125 C 1.921875 -3.078125 1.941406 -3.078125 1.984375 -3.078125 C 2.035156 -3.078125 2.101562 -3.082031 2.1875 -3.09375 C 2.28125 -3.113281 2.378906 -3.132812 2.484375 -3.15625 C 2.597656 -3.1875 2.695312 -3.226562 2.78125 -3.28125 C 2.875 -3.34375 2.957031 -3.414062 3.03125 -3.5 C 3.1875 -3.675781 3.265625 -3.941406 3.265625 -4.296875 C 3.265625 -4.648438 3.160156 -4.925781 2.953125 -5.125 C 2.753906 -5.332031 2.460938 -5.4375 2.078125 -5.4375 L 1.640625 -5.4375 Z M 1.640625 -0.296875 "/></g></g></g><g fill="#000000" fill-opacity="1"><g transform="translate(89.550352, 39.53327)"><g><path d="M 1.375 -4.984375 C 1.914062 -5.535156 2.617188 -5.8125 3.484375 -5.8125 C 4.359375 -5.8125 5.066406 -5.535156 5.609375 -4.984375 C 6.148438 -4.441406 6.421875 -3.726562 6.421875 -2.84375 C 6.421875 -1.957031 6.148438 -1.242188 5.609375 -0.703125 C 5.066406 -0.160156 4.359375 0.109375 3.484375 0.109375 C 2.617188 0.109375 1.914062 -0.160156 1.375 -0.703125 C 0.832031 -1.242188 0.5625 -1.957031 0.5625 -2.84375 C 0.5625 -3.726562 0.832031 -4.441406 1.375 -4.984375 Z M 1.828125 -0.875 C 2.242188 -0.375 2.796875 -0.125 3.484375 -0.125 C 4.179688 -0.125 4.738281 -0.375 5.15625 -0.875 C 5.582031 -1.375 5.796875 -2.03125 5.796875 -2.84375 C 5.796875 -3.382812 5.695312 -3.859375 5.5 -4.265625 C 5.3125 -4.679688 5.039062 -5 4.6875 -5.21875 C 4.34375 -5.445312 3.945312 -5.5625 3.5 -5.5625 C 2.800781 -5.5625 2.242188 -5.3125 1.828125 -4.8125 C 1.410156 -4.3125 1.203125 -3.65625 1.203125 -2.84375 C 1.203125 -2.03125 1.410156 -1.375 1.828125 -0.875 Z M 1.828125 -0.875 "/></g></g></g><g fill="#000000" fill-opacity="1"><g transform="translate(102.872407, 39.53327)"><g><path d="M 5.984375 -5.609375 L 5.859375 -5.609375 C 5.742188 -5.609375 5.644531 -5.570312 5.5625 -5.5 C 5.476562 -5.425781 5.429688 -5.335938 5.421875 -5.234375 L 5.421875 -2.015625 C 5.421875 -1.378906 5.21875 -0.863281 4.8125 -0.46875 C 4.414062 -0.0820312 3.882812 0.109375 3.21875 0.109375 C 2.550781 0.109375 2.007812 -0.0820312 1.59375 -0.46875 C 1.175781 -0.851562 0.96875 -1.363281 0.96875 -2 L 0.96875 -5.203125 C 0.96875 -5.367188 0.894531 -5.488281 0.75 -5.5625 C 0.6875 -5.59375 0.613281 -5.609375 0.53125 -5.609375 L 0.40625 -5.609375 L 0.40625 -5.703125 L 2.0625 -5.703125 L 2.0625 -5.609375 L 1.921875 -5.609375 C 1.804688 -5.609375 1.707031 -5.570312 1.625 -5.5 C 1.539062 -5.425781 1.5 -5.332031 1.5 -5.21875 L 1.5 -2.109375 C 1.5 -1.523438 1.65625 -1.050781 1.96875 -0.6875 C 2.289062 -0.320312 2.71875 -0.140625 3.25 -0.140625 C 3.78125 -0.140625 4.207031 -0.3125 4.53125 -0.65625 C 4.863281 -1 5.03125 -1.453125 5.03125 -2.015625 L 5.03125 -5.21875 C 5.03125 -5.332031 4.988281 -5.425781 4.90625 -5.5 C 4.820312 -5.570312 4.722656 -5.609375 4.609375 -5.609375 L 4.484375 -5.609375 L 4.484375 -5.703125 L 5.984375 -5.703125 Z M 5.984375 -5.609375 "/></g></g></g><g fill="#000000" fill-opacity="1"><g transform="translate(115.763398, 39.53327)"><g><path d="M 4.796875 -4.96875 C 4.796875 -5.101562 4.75 -5.21875 4.65625 -5.3125 C 4.5625 -5.40625 4.453125 -5.457031 4.328125 -5.46875 L 2.78125 -5.46875 L 2.78125 -0.59375 C 2.789062 -0.445312 2.84375 -0.320312 2.9375 -0.21875 C 3.039062 -0.125 3.164062 -0.078125 3.3125 -0.078125 L 3.40625 -0.078125 L 3.40625 0 L 1.625 0 L 1.625 -0.078125 L 1.734375 -0.078125 C 1.878906 -0.078125 2 -0.125 2.09375 -0.21875 C 2.195312 -0.320312 2.25 -0.441406 2.25 -0.578125 L 2.25 -5.46875 L 0.703125 -5.46875 C 0.578125 -5.457031 0.46875 -5.40625 0.375 -5.3125 C 0.289062 -5.21875 0.25 -5.101562 0.25 -4.96875 L 0.25 -4.828125 L 0.15625 -4.828125 L 0.15625 -5.859375 C 0.238281 -5.816406 0.378906 -5.78125 0.578125 -5.75 C 0.785156 -5.71875 0.972656 -5.703125 1.140625 -5.703125 L 3.890625 -5.703125 C 4.160156 -5.703125 4.378906 -5.722656 4.546875 -5.765625 C 4.722656 -5.804688 4.832031 -5.835938 4.875 -5.859375 L 4.875 -4.828125 L 4.796875 -4.828125 Z M 4.796875 -4.96875 "/></g></g></g><g fill="#000000" fill-opacity="1"><g transform="translate(127.296152, 39.53327)"><g><path d="M 0.59375 -0.078125 C 0.738281 -0.078125 0.859375 -0.125 0.953125 -0.21875 C 1.054688 -0.320312 1.109375 -0.445312 1.109375 -0.59375 L 1.109375 -5.109375 C 1.109375 -5.253906 1.054688 -5.375 0.953125 -5.46875 C 0.859375 -5.5625 0.738281 -5.609375 0.59375 -5.609375 L 0.484375 -5.609375 L 0.484375 -5.703125 L 2.265625 -5.703125 L 2.265625 -5.609375 L 2.171875 -5.609375 C 2.023438 -5.609375 1.898438 -5.5625 1.796875 -5.46875 C 1.703125 -5.375 1.648438 -5.253906 1.640625 -5.109375 L 1.640625 -0.59375 C 1.640625 -0.445312 1.691406 -0.320312 1.796875 -0.21875 C 1.898438 -0.125 2.023438 -0.078125 2.171875 -0.078125 L 2.265625 -0.078125 L 2.265625 0 L 0.484375 0 L 0.484375 -0.078125 Z M 0.59375 -0.078125 "/></g></g></g><g fill="#000000" fill-opacity="1"><g transform="translate(136.55163, 39.53327)"><g><path d="M 10.546875 1.109375 C 10.410156 1.253906 10.21875 1.394531 9.96875 1.53125 C 9.71875 1.664062 9.460938 1.769531 9.203125 1.84375 C 8.953125 1.914062 8.726562 1.953125 8.53125 1.953125 C 7.90625 1.953125 7.304688 1.828125 6.734375 1.578125 C 6.535156 1.492188 6.195312 1.328125 5.71875 1.078125 C 4.65625 0.535156 3.859375 0.210938 3.328125 0.109375 C 2.484375 0.0859375 1.796875 -0.191406 1.265625 -0.734375 C 0.742188 -1.273438 0.484375 -1.984375 0.484375 -2.859375 C 0.484375 -3.734375 0.753906 -4.441406 1.296875 -4.984375 C 1.835938 -5.535156 2.539062 -5.8125 3.40625 -5.8125 C 4.28125 -5.8125 4.984375 -5.535156 5.515625 -4.984375 C 6.054688 -4.441406 6.328125 -3.726562 6.328125 -2.84375 C 6.328125 -2.09375 6.125 -1.457031 5.71875 -0.9375 C 5.320312 -0.425781 4.785156 -0.0976562 4.109375 0.046875 C 4.703125 0.222656 5.601562 0.566406 6.8125 1.078125 C 7.382812 1.316406 7.96875 1.4375 8.5625 1.4375 C 8.894531 1.4375 9.234375 1.394531 9.578125 1.3125 C 10.054688 1.1875 10.457031 0.976562 10.78125 0.6875 L 10.8125 0.71875 C 10.769531 0.832031 10.679688 0.960938 10.546875 1.109375 Z M 3.40625 -5.5625 C 2.71875 -5.5625 2.160156 -5.3125 1.734375 -4.8125 C 1.304688 -4.3125 1.09375 -3.65625 1.09375 -2.84375 C 1.09375 -2.03125 1.304688 -1.375 1.734375 -0.875 C 2.160156 -0.375 2.71875 -0.125 3.40625 -0.125 C 4.101562 -0.125 4.660156 -0.375 5.078125 -0.875 C 5.503906 -1.375 5.71875 -2.03125 5.71875 -2.84375 C 5.71875 -3.382812 5.617188 -3.859375 5.421875 -4.265625 C 5.234375 -4.679688 4.960938 -5 4.609375 -5.21875 C 4.265625 -5.445312 3.863281 -5.5625 3.40625 -5.5625 Z M 3.40625 -5.5625 "/></g></g></g><g fill="#000000" fill-opacity="1"><g transform="translate(149.865545, 39.53327)"><g><path d="M 5.984375 -5.609375 L 5.859375 -5.609375 C 5.742188 -5.609375 5.644531 -5.570312 5.5625 -5.5 C 5.476562 -5.425781 5.429688 -5.335938 5.421875 -5.234375 L 5.421875 -2.015625 C 5.421875 -1.378906 5.21875 -0.863281 4.8125 -0.46875 C 4.414062 -0.0820312 3.882812 0.109375 3.21875 0.109375 C 2.550781 0.109375 2.007812 -0.0820312 1.59375 -0.46875 C 1.175781 -0.851562 0.96875 -1.363281 0.96875 -2 L 0.96875 -5.203125 C 0.96875 -5.367188 0.894531 -5.488281 0.75 -5.5625 C 0.6875 -5.59375 0.613281 -5.609375 0.53125 -5.609375 L 0.40625 -5.609375 L 0.40625 -5.703125 L 2.0625 -5.703125 L 2.0625 -5.609375 L 1.921875 -5.609375 C 1.804688 -5.609375 1.707031 -5.570312 1.625 -5.5 C 1.539062 -5.425781 1.5 -5.332031 1.5 -5.21875 L 1.5 -2.109375 C 1.5 -1.523438 1.65625 -1.050781 1.96875 -0.6875 C 2.289062 -0.320312 2.71875 -0.140625 3.25 -0.140625 C 3.78125 -0.140625 4.207031 -0.3125 4.53125 -0.65625 C 4.863281 -1 5.03125 -1.453125 5.03125 -2.015625 L 5.03125 -5.21875 C 5.03125 -5.332031 4.988281 -5.425781 4.90625 -5.5 C 4.820312 -5.570312 4.722656 -5.609375 4.609375 -5.609375 L 4.484375 -5.609375 L 4.484375 -5.703125 L 5.984375 -5.703125 Z M 5.984375 -5.609375 "/></g></g></g><g fill="#000000" fill-opacity="1"><g transform="translate(162.756534, 39.53327)"><g><path d="M 0.59375 -0.078125 C 0.738281 -0.078125 0.859375 -0.125 0.953125 -0.21875 C 1.054688 -0.320312 1.109375 -0.445312 1.109375 -0.59375 L 1.109375 -5.15625 C 1.097656 -5.28125 1.039062 -5.382812 0.9375 -5.46875 C 0.84375 -5.5625 0.726562 -5.609375 0.59375 -5.609375 L 0.5 -5.609375 L 0.484375 -5.703125 L 2.875 -5.703125 C 3.039062 -5.703125 3.222656 -5.71875 3.421875 -5.75 C 3.617188 -5.78125 3.757812 -5.8125 3.84375 -5.84375 L 3.84375 -4.8125 L 3.765625 -4.8125 L 3.765625 -4.96875 C 3.765625 -5.09375 3.71875 -5.203125 3.625 -5.296875 C 3.539062 -5.390625 3.4375 -5.441406 3.3125 -5.453125 L 1.640625 -5.453125 L 1.640625 -2.9375 L 3.015625 -2.9375 C 3.128906 -2.9375 3.222656 -2.972656 3.296875 -3.046875 C 3.367188 -3.128906 3.40625 -3.226562 3.40625 -3.34375 L 3.40625 -3.453125 L 3.5 -3.453125 L 3.5 -2.171875 L 3.40625 -2.171875 L 3.40625 -2.28125 C 3.40625 -2.394531 3.367188 -2.488281 3.296875 -2.5625 C 3.222656 -2.632812 3.132812 -2.675781 3.03125 -2.6875 L 1.640625 -2.6875 L 1.640625 -0.25 L 2.8125 -0.25 C 3.207031 -0.25 3.507812 -0.335938 3.71875 -0.515625 C 3.9375 -0.703125 4.113281 -0.96875 4.25 -1.3125 L 4.34375 -1.3125 L 3.859375 0 L 0.484375 0 L 0.484375 -0.078125 Z M 0.59375 -0.078125 "/></g></g></g></svg>