<svg xmlns="http://www.w3.org/2000/svg" xmlns:xlink="http://www.w3.org/1999/xlink" width="400" zoomAndPan="magnify" viewBox="0 0 300 74.999997" height="100" preserveAspectRatio="xMidYMid meet" version="1.0"><defs><g/><clipPath id="e7692c6425"><path d="M 65.5625 33.757812 L 219.292969 33.757812 L 219.292969 41.242188 L 65.5625 41.242188 Z M 65.5625 33.757812 " clip-rule="nonzero"/></clipPath></defs><rect x="-30" width="360" fill="#ffffff" y="-7.5" height="89.999996" fill-opacity="1"/><rect x="-30" width="360" fill="#ffffff" y="-7.5" height="89.999996" fill-opacity="1"/><g fill="#000000" fill-opacity="1"><g transform="translate(58.07042, 46.943662)"><g><path d="M 8.953125 -24.265625 C 8.929688 -24.265625 8.910156 -24.273438 8.890625 -24.296875 C 8.847656 -24.316406 8.835938 -24.347656 8.859375 -24.390625 L 9.71875 -26.59375 C 9.71875 -26.625 9.738281 -26.640625 9.78125 -26.640625 L 11.515625 -26.640625 C 11.566406 -26.640625 11.601562 -26.625 11.625 -26.59375 C 11.625 -26.550781 11.613281 -26.519531 11.59375 -26.5 L 8.984375 -24.296875 C 8.984375 -24.273438 8.972656 -24.265625 8.953125 -24.265625 Z M 16.359375 -2.078125 C 16.378906 -2.054688 16.398438 -2.035156 16.421875 -2.015625 C 16.421875 -1.984375 16.421875 -1.957031 16.421875 -1.9375 L 15.46875 0.03125 C 15.445312 0.0507812 15.4375 0.0625 15.4375 0.0625 C 15.414062 0.0820312 15.394531 0.09375 15.375 0.09375 L 1.609375 0.09375 C 1.566406 0.09375 1.53125 0.09375 1.5 0.09375 C 1.46875 0.09375 1.425781 0.09375 1.375 0.09375 C 1.3125 0.09375 1.28125 0.0625 1.28125 0 C 1.28125 -0.0625 1.3125 -0.09375 1.375 -0.09375 L 1.578125 -0.09375 C 1.992188 -0.144531 2.34375 -0.328125 2.625 -0.640625 C 2.914062 -0.960938 3.0625 -1.34375 3.0625 -1.78125 L 3.0625 -8.03125 C 3.0625 -8.976562 3.359375 -9.8125 3.953125 -10.53125 C 4.546875 -11.257812 5.289062 -11.722656 6.1875 -11.921875 C 5.289062 -12.117188 4.546875 -12.578125 3.953125 -13.296875 C 3.359375 -14.023438 3.0625 -14.847656 3.0625 -15.765625 L 3.0625 -19.0625 C 3.0625 -19.9375 3.316406 -20.71875 3.828125 -21.40625 C 4.347656 -22.101562 5.023438 -22.582031 5.859375 -22.84375 L 1.375 -22.84375 C 1.3125 -22.84375 1.28125 -22.878906 1.28125 -22.953125 C 1.28125 -22.992188 1.3125 -23.015625 1.375 -23.015625 L 14.71875 -23.015625 C 14.71875 -23.015625 14.726562 -23.015625 14.75 -23.015625 C 14.769531 -22.992188 14.78125 -22.984375 14.78125 -22.984375 L 15.734375 -21 C 15.734375 -20.976562 15.734375 -20.957031 15.734375 -20.9375 C 15.734375 -20.914062 15.722656 -20.894531 15.703125 -20.875 C 15.679688 -20.875 15.671875 -20.875 15.671875 -20.875 C 15.628906 -20.875 15.597656 -20.882812 15.578125 -20.90625 C 15.398438 -21.28125 14.898438 -21.609375 14.078125 -21.890625 C 13.253906 -22.179688 12.222656 -22.410156 10.984375 -22.578125 C 9.742188 -22.753906 8.421875 -22.84375 7.015625 -22.84375 C 6.992188 -22.84375 6.960938 -22.84375 6.921875 -22.84375 C 6.890625 -22.84375 6.863281 -22.84375 6.84375 -22.84375 C 6.40625 -22.800781 6.039062 -22.613281 5.75 -22.28125 C 5.46875 -21.957031 5.328125 -21.578125 5.328125 -21.140625 L 5.328125 -13.703125 C 5.328125 -13.253906 5.46875 -12.867188 5.75 -12.546875 C 6.039062 -12.234375 6.40625 -12.054688 6.84375 -12.015625 C 6.863281 -12.015625 6.890625 -12.007812 6.921875 -12 C 6.960938 -11.988281 6.992188 -11.984375 7.015625 -11.984375 L 10.046875 -11.984375 C 10.109375 -11.984375 10.140625 -11.960938 10.140625 -11.921875 C 10.140625 -11.847656 10.109375 -11.8125 10.046875 -11.8125 L 7.015625 -11.8125 C 6.992188 -11.8125 6.960938 -11.8125 6.921875 -11.8125 C 6.890625 -11.8125 6.863281 -11.8125 6.84375 -11.8125 C 6.40625 -11.769531 6.039062 -11.582031 5.75 -11.25 C 5.46875 -10.925781 5.328125 -10.546875 5.328125 -10.109375 L 5.328125 -3.859375 C 5.328125 -2.992188 5.066406 -2.21875 4.546875 -1.53125 C 4.035156 -0.84375 3.375 -0.363281 2.5625 -0.09375 L 7.703125 -0.09375 C 9.109375 -0.09375 10.429688 -0.179688 11.671875 -0.359375 C 12.910156 -0.535156 13.941406 -0.765625 14.765625 -1.046875 C 15.585938 -1.335938 16.085938 -1.660156 16.265625 -2.015625 C 16.285156 -2.078125 16.316406 -2.097656 16.359375 -2.078125 Z M 16.359375 -2.078125 "/></g></g></g><g fill="#000000" fill-opacity="1"><g transform="translate(94.853205, 46.943662)"><g><path d="M 13.203125 -23.171875 C 11.992188 -23.148438 10.84375 -22.832031 9.75 -22.21875 C 8.664062 -21.601562 7.707031 -20.75 6.875 -19.65625 C 6.019531 -18.5625 5.367188 -17.3125 4.921875 -15.90625 C 4.472656 -14.5 4.25 -13.015625 4.25 -11.453125 C 4.25 -9.921875 4.472656 -8.445312 4.921875 -7.03125 C 5.367188 -5.613281 6.019531 -4.359375 6.875 -3.265625 C 7.707031 -2.160156 8.664062 -1.304688 9.75 -0.703125 C 10.84375 -0.0976562 11.984375 0.222656 13.171875 0.265625 L 13.234375 0.265625 C 13.316406 0.265625 13.382812 0.265625 13.4375 0.265625 C 13.457031 0.265625 13.488281 0.265625 13.53125 0.265625 C 13.570312 0.265625 13.601562 0.265625 13.625 0.265625 C 15.363281 0.203125 16.945312 -0.414062 18.375 -1.59375 C 19.800781 -2.769531 20.882812 -4.332031 21.625 -6.28125 C 21.644531 -6.332031 21.679688 -6.359375 21.734375 -6.359375 C 21.773438 -6.359375 21.796875 -6.332031 21.796875 -6.28125 L 22.65625 -4.015625 C 22.675781 -3.992188 22.675781 -3.972656 22.65625 -3.953125 C 21.550781 -2.585938 20.207031 -1.519531 18.625 -0.75 C 17.050781 0.0078125 15.394531 0.398438 13.65625 0.421875 L 13.59375 0.421875 C 13.550781 0.421875 13.5 0.421875 13.4375 0.421875 C 13.363281 0.421875 13.285156 0.421875 13.203125 0.421875 C 11.640625 0.398438 10.140625 0.0820312 8.703125 -0.53125 C 7.265625 -1.144531 6.007812 -2.007812 4.9375 -3.125 C 3.84375 -4.25 3 -5.53125 2.40625 -6.96875 C 1.8125 -8.40625 1.515625 -9.898438 1.515625 -11.453125 C 1.515625 -13.015625 1.8125 -14.519531 2.40625 -15.96875 C 3 -17.414062 3.84375 -18.695312 4.9375 -19.8125 C 6.007812 -20.914062 7.257812 -21.78125 8.6875 -22.40625 C 10.113281 -23.03125 11.609375 -23.351562 13.171875 -23.375 L 13.265625 -23.375 C 13.304688 -23.375 13.363281 -23.375 13.4375 -23.375 C 13.476562 -23.375 13.550781 -23.375 13.65625 -23.375 C 15.394531 -23.332031 17.046875 -22.929688 18.609375 -22.171875 C 20.179688 -21.410156 21.53125 -20.351562 22.65625 -19 C 22.675781 -18.976562 22.675781 -18.941406 22.65625 -18.890625 L 21.796875 -16.625 C 21.796875 -16.601562 21.773438 -16.59375 21.734375 -16.59375 C 21.679688 -16.59375 21.644531 -16.601562 21.625 -16.625 C 20.882812 -18.601562 19.800781 -20.175781 18.375 -21.34375 C 16.945312 -22.519531 15.375 -23.128906 13.65625 -23.171875 L 13.59375 -23.203125 C 13.550781 -23.203125 13.5 -23.203125 13.4375 -23.203125 C 13.363281 -23.203125 13.285156 -23.191406 13.203125 -23.171875 Z M 13.203125 -23.171875 "/></g></g></g><g fill="#000000" fill-opacity="1"><g transform="translate(138.550875, 46.943662)"><g><path d="M 14.875 -2.078125 C 14.894531 -2.054688 14.921875 -2.035156 14.953125 -2.015625 C 14.953125 -1.984375 14.953125 -1.957031 14.953125 -1.9375 L 13.984375 0.03125 C 13.960938 0.0507812 13.953125 0.0625 13.953125 0.0625 C 13.929688 0.0820312 13.910156 0.09375 13.890625 0.09375 L 1.71875 0.09375 C 1.664062 0.09375 1.625 0.09375 1.59375 0.09375 C 1.5625 0.09375 1.523438 0.09375 1.484375 0.09375 C 1.410156 0.09375 1.375 0.0625 1.375 0 C 1.375 -0.0625 1.410156 -0.09375 1.484375 -0.09375 L 1.671875 -0.09375 C 2.085938 -0.144531 2.4375 -0.328125 2.71875 -0.640625 C 3.007812 -0.960938 3.15625 -1.34375 3.15625 -1.78125 L 3.15625 -19.0625 C 3.15625 -19.9375 3.410156 -20.71875 3.921875 -21.40625 C 4.441406 -22.101562 5.117188 -22.582031 5.953125 -22.84375 L 1.484375 -22.84375 C 1.410156 -22.84375 1.375 -22.878906 1.375 -22.953125 C 1.375 -22.992188 1.410156 -23.015625 1.484375 -23.015625 L 7.109375 -23.015625 C 7.148438 -23.015625 7.171875 -23.015625 7.171875 -23.015625 C 7.191406 -22.992188 7.203125 -22.972656 7.203125 -22.953125 C 7.203125 -22.921875 7.191406 -22.894531 7.171875 -22.875 C 7.171875 -22.851562 7.148438 -22.84375 7.109375 -22.84375 C 7.085938 -22.84375 7.0625 -22.84375 7.03125 -22.84375 C 7 -22.84375 6.972656 -22.84375 6.953125 -22.84375 C 6.503906 -22.800781 6.140625 -22.613281 5.859375 -22.28125 C 5.578125 -21.957031 5.4375 -21.578125 5.4375 -21.140625 L 5.4375 -3.859375 C 5.4375 -2.992188 5.175781 -2.21875 4.65625 -1.53125 C 4.144531 -0.84375 3.484375 -0.363281 2.671875 -0.09375 L 6.21875 -0.09375 C 7.625 -0.09375 8.945312 -0.179688 10.1875 -0.359375 C 11.425781 -0.535156 12.457031 -0.765625 13.28125 -1.046875 C 14.101562 -1.335938 14.601562 -1.660156 14.78125 -2.015625 C 14.78125 -2.035156 14.789062 -2.054688 14.8125 -2.078125 C 14.832031 -2.078125 14.851562 -2.078125 14.875 -2.078125 Z M 14.875 -2.078125 "/></g></g></g><g fill="#000000" fill-opacity="1"><g transform="translate(173.489693, 46.943662)"><g><path d="M 24.359375 -0.09375 C 24.398438 -0.09375 24.421875 -0.0625 24.421875 0 C 24.421875 0.0625 24.398438 0.09375 24.359375 0.09375 L 18.703125 0.09375 C 18.628906 0.09375 18.59375 0.0625 18.59375 0 C 18.59375 -0.0625 18.628906 -0.09375 18.703125 -0.09375 C 19.023438 -0.09375 19.304688 -0.207031 19.546875 -0.4375 C 19.796875 -0.675781 19.921875 -0.96875 19.921875 -1.3125 C 19.898438 -1.53125 19.84375 -1.726562 19.75 -1.90625 L 11.65625 -20.40625 L 6.328125 -7.4375 L 14.390625 -7.4375 C 14.453125 -7.4375 14.484375 -7.40625 14.484375 -7.34375 C 14.484375 -7.28125 14.453125 -7.25 14.390625 -7.25 L 6.21875 -7.25 L 4.3125 -2.59375 C 4.3125 -2.570312 4.3125 -2.5625 4.3125 -2.5625 C 4.289062 -2.539062 4.289062 -2.539062 4.3125 -2.5625 L 3.453125 -0.5625 C 3.453125 -0.519531 3.429688 -0.5 3.390625 -0.5 C 3.367188 -0.5 3.359375 -0.5 3.359375 -0.5 C 3.296875 -0.519531 3.273438 -0.5625 3.296875 -0.625 L 3.6875 -1.546875 C 3.113281 -0.816406 2.390625 -0.332031 1.515625 -0.09375 L 5.921875 -0.09375 C 5.992188 -0.09375 6.03125 -0.0625 6.03125 0 C 6.03125 0.0625 5.992188 0.09375 5.921875 0.09375 L 0.296875 0.09375 C 0.273438 0.09375 0.253906 0.0820312 0.234375 0.0625 C 0.210938 0.0390625 0.203125 0.0195312 0.203125 0 C 0.203125 -0.0195312 0.210938 -0.0390625 0.234375 -0.0625 C 0.253906 -0.0820312 0.273438 -0.09375 0.296875 -0.09375 C 1.128906 -0.09375 1.894531 -0.320312 2.59375 -0.78125 C 3.300781 -1.25 3.816406 -1.867188 4.140625 -2.640625 L 12.640625 -23.203125 L 12.671875 -23.3125 C 12.671875 -23.332031 12.679688 -23.34375 12.703125 -23.34375 C 12.722656 -23.363281 12.757812 -23.375 12.8125 -23.375 C 12.8125 -23.351562 12.8125 -23.34375 12.8125 -23.34375 C 12.832031 -23.34375 12.84375 -23.332031 12.84375 -23.3125 L 21.296875 -3.984375 C 21.472656 -3.609375 21.5625 -3.210938 21.5625 -2.796875 C 21.5625 -2.179688 21.390625 -1.625 21.046875 -1.125 C 20.710938 -0.632812 20.257812 -0.289062 19.6875 -0.09375 Z M 24.359375 -0.09375 "/></g></g></g><g fill="#000000" fill-opacity="1"><g transform="translate(217.812984, 46.943662)"><g><path d="M 13.203125 -23.171875 C 11.992188 -23.148438 10.84375 -22.832031 9.75 -22.21875 C 8.664062 -21.601562 7.707031 -20.75 6.875 -19.65625 C 6.019531 -18.5625 5.367188 -17.3125 4.921875 -15.90625 C 4.472656 -14.5 4.25 -13.015625 4.25 -11.453125 C 4.25 -9.921875 4.472656 -8.445312 4.921875 -7.03125 C 5.367188 -5.613281 6.019531 -4.359375 6.875 -3.265625 C 7.707031 -2.160156 8.664062 -1.304688 9.75 -0.703125 C 10.84375 -0.0976562 11.984375 0.222656 13.171875 0.265625 L 13.234375 0.265625 C 13.316406 0.265625 13.382812 0.265625 13.4375 0.265625 C 13.457031 0.265625 13.488281 0.265625 13.53125 0.265625 C 13.570312 0.265625 13.601562 0.265625 13.625 0.265625 C 15.363281 0.203125 16.945312 -0.414062 18.375 -1.59375 C 19.800781 -2.769531 20.882812 -4.332031 21.625 -6.28125 C 21.644531 -6.332031 21.679688 -6.359375 21.734375 -6.359375 C 21.773438 -6.359375 21.796875 -6.332031 21.796875 -6.28125 L 22.65625 -4.015625 C 22.675781 -3.992188 22.675781 -3.972656 22.65625 -3.953125 C 21.550781 -2.585938 20.207031 -1.519531 18.625 -0.75 C 17.050781 0.0078125 15.394531 0.398438 13.65625 0.421875 L 13.59375 0.421875 C 13.550781 0.421875 13.5 0.421875 13.4375 0.421875 C 13.363281 0.421875 13.285156 0.421875 13.203125 0.421875 C 11.640625 0.398438 10.140625 0.0820312 8.703125 -0.53125 C 7.265625 -1.144531 6.007812 -2.007812 4.9375 -3.125 C 3.84375 -4.25 3 -5.53125 2.40625 -6.96875 C 1.8125 -8.40625 1.515625 -9.898438 1.515625 -11.453125 C 1.515625 -13.015625 1.8125 -14.519531 2.40625 -15.96875 C 3 -17.414062 3.84375 -18.695312 4.9375 -19.8125 C 6.007812 -20.914062 7.257812 -21.78125 8.6875 -22.40625 C 10.113281 -23.03125 11.609375 -23.351562 13.171875 -23.375 L 13.265625 -23.375 C 13.304688 -23.375 13.363281 -23.375 13.4375 -23.375 C 13.476562 -23.375 13.550781 -23.375 13.65625 -23.375 C 15.394531 -23.332031 17.046875 -22.929688 18.609375 -22.171875 C 20.179688 -21.410156 21.53125 -20.351562 22.65625 -19 C 22.675781 -18.976562 22.675781 -18.941406 22.65625 -18.890625 L 21.796875 -16.625 C 21.796875 -16.601562 21.773438 -16.59375 21.734375 -16.59375 C 21.679688 -16.59375 21.644531 -16.601562 21.625 -16.625 C 20.882812 -18.601562 19.800781 -20.175781 18.375 -21.34375 C 16.945312 -22.519531 15.375 -23.128906 13.65625 -23.171875 L 13.59375 -23.203125 C 13.550781 -23.203125 13.5 -23.203125 13.4375 -23.203125 C 13.363281 -23.203125 13.285156 -23.191406 13.203125 -23.171875 Z M 13.203125 -23.171875 "/></g></g></g><g clip-path="url(#e7692c6425)"><path fill="#ffffff" d="M 65.5625 33.757812 L 219.28125 33.757812 L 219.28125 41.242188 L 65.5625 41.242188 Z M 65.5625 33.757812 " fill-opacity="1" fill-rule="nonzero"/></g><g fill="#000000" fill-opacity="1"><g transform="translate(93.000691, 39.949533)"><g><path d="M 2.90625 0 L 0.578125 0 L 0.578125 -0.09375 L 0.703125 -0.09375 C 0.867188 -0.09375 1.007812 -0.148438 1.125 -0.265625 C 1.238281 -0.378906 1.300781 -0.519531 1.3125 -0.6875 L 1.3125 -6 C 1.3125 -6.164062 1.25 -6.304688 1.125 -6.421875 C 1.007812 -6.535156 0.867188 -6.59375 0.703125 -6.59375 L 0.578125 -6.59375 L 0.578125 -6.6875 L 2.484375 -6.6875 C 3.140625 -6.6875 3.644531 -6.539062 4 -6.25 C 4.363281 -5.96875 4.546875 -5.582031 4.546875 -5.09375 C 4.546875 -4.707031 4.441406 -4.390625 4.234375 -4.140625 C 4.035156 -3.890625 3.789062 -3.722656 3.5 -3.640625 C 4 -3.566406 4.394531 -3.359375 4.6875 -3.015625 C 4.988281 -2.679688 5.140625 -2.253906 5.140625 -1.734375 C 5.140625 -1.222656 4.941406 -0.804688 4.546875 -0.484375 C 4.148438 -0.160156 3.601562 0 2.90625 0 Z M 1.9375 -0.34375 L 2.875 -0.34375 C 2.875 -0.34375 2.878906 -0.34375 2.890625 -0.34375 C 3.367188 -0.34375 3.742188 -0.472656 4.015625 -0.734375 C 4.285156 -1.003906 4.421875 -1.378906 4.421875 -1.859375 C 4.421875 -2.140625 4.375 -2.378906 4.28125 -2.578125 C 4.1875 -2.785156 4.070312 -2.953125 3.9375 -3.078125 C 3.5625 -3.378906 3.003906 -3.53125 2.265625 -3.53125 C 2.265625 -3.53125 2.257812 -3.53125 2.25 -3.53125 L 2.25 -3.625 C 2.257812 -3.625 2.289062 -3.625 2.34375 -3.625 C 2.394531 -3.625 2.472656 -3.628906 2.578125 -3.640625 C 2.679688 -3.648438 2.796875 -3.671875 2.921875 -3.703125 C 3.054688 -3.742188 3.171875 -3.796875 3.265625 -3.859375 C 3.367188 -3.929688 3.46875 -4.015625 3.5625 -4.109375 C 3.738281 -4.316406 3.828125 -4.628906 3.828125 -5.046875 C 3.828125 -5.472656 3.707031 -5.800781 3.46875 -6.03125 C 3.238281 -6.269531 2.894531 -6.390625 2.4375 -6.390625 L 1.9375 -6.390625 Z M 1.9375 -0.34375 "/></g></g></g><g fill="#000000" fill-opacity="1"><g transform="translate(106.262449, 39.949533)"><g><path d="M 1.625 -5.859375 C 2.257812 -6.503906 3.082031 -6.828125 4.09375 -6.828125 C 5.113281 -6.828125 5.941406 -6.503906 6.578125 -5.859375 C 7.222656 -5.222656 7.546875 -4.382812 7.546875 -3.34375 C 7.546875 -2.300781 7.222656 -1.457031 6.578125 -0.8125 C 5.941406 -0.175781 5.113281 0.140625 4.09375 0.140625 C 3.082031 0.140625 2.257812 -0.175781 1.625 -0.8125 C 0.988281 -1.457031 0.671875 -2.300781 0.671875 -3.34375 C 0.671875 -4.382812 0.988281 -5.222656 1.625 -5.859375 Z M 2.140625 -1.03125 C 2.640625 -0.445312 3.296875 -0.15625 4.109375 -0.15625 C 4.921875 -0.15625 5.570312 -0.445312 6.0625 -1.03125 C 6.5625 -1.613281 6.8125 -2.382812 6.8125 -3.34375 C 6.8125 -3.976562 6.695312 -4.535156 6.46875 -5.015625 C 6.25 -5.503906 5.929688 -5.878906 5.515625 -6.140625 C 5.109375 -6.410156 4.640625 -6.546875 4.109375 -6.546875 C 3.296875 -6.546875 2.640625 -6.25 2.140625 -5.65625 C 1.648438 -5.070312 1.40625 -4.300781 1.40625 -3.34375 C 1.40625 -2.382812 1.648438 -1.613281 2.140625 -1.03125 Z M 2.140625 -1.03125 "/></g></g></g><g fill="#000000" fill-opacity="1"><g transform="translate(121.935456, 39.949533)"><g><path d="M 7.03125 -6.59375 L 6.875 -6.59375 C 6.738281 -6.59375 6.617188 -6.550781 6.515625 -6.46875 C 6.421875 -6.382812 6.375 -6.28125 6.375 -6.15625 L 6.375 -2.359375 C 6.375 -1.617188 6.132812 -1.015625 5.65625 -0.546875 C 5.1875 -0.0859375 4.554688 0.140625 3.765625 0.140625 C 2.984375 0.140625 2.347656 -0.0859375 1.859375 -0.546875 C 1.378906 -1.003906 1.140625 -1.609375 1.140625 -2.359375 L 1.140625 -6.125 C 1.140625 -6.3125 1.054688 -6.453125 0.890625 -6.546875 C 0.816406 -6.578125 0.726562 -6.59375 0.625 -6.59375 L 0.484375 -6.59375 L 0.484375 -6.6875 L 2.421875 -6.6875 L 2.421875 -6.59375 L 2.265625 -6.59375 C 2.128906 -6.59375 2.007812 -6.550781 1.90625 -6.46875 C 1.8125 -6.382812 1.765625 -6.273438 1.765625 -6.140625 L 1.765625 -2.484375 C 1.765625 -1.785156 1.945312 -1.222656 2.3125 -0.796875 C 2.6875 -0.367188 3.1875 -0.15625 3.8125 -0.15625 C 4.4375 -0.15625 4.941406 -0.359375 5.328125 -0.765625 C 5.722656 -1.171875 5.921875 -1.703125 5.921875 -2.359375 L 5.921875 -6.140625 C 5.910156 -6.273438 5.859375 -6.382812 5.765625 -6.46875 C 5.671875 -6.550781 5.550781 -6.59375 5.40625 -6.59375 L 5.265625 -6.59375 L 5.265625 -6.6875 L 7.03125 -6.6875 Z M 7.03125 -6.59375 "/></g></g></g><g fill="#000000" fill-opacity="1"><g transform="translate(137.101329, 39.949533)"><g><path d="M 5.625 -5.84375 C 5.625 -6 5.570312 -6.128906 5.46875 -6.234375 C 5.363281 -6.347656 5.238281 -6.410156 5.09375 -6.421875 L 3.265625 -6.421875 L 3.265625 -0.6875 C 3.273438 -0.519531 3.335938 -0.378906 3.453125 -0.265625 C 3.578125 -0.148438 3.71875 -0.09375 3.875 -0.09375 L 4 -0.09375 L 4 0 L 1.90625 0 L 1.90625 -0.09375 L 2.03125 -0.09375 C 2.195312 -0.09375 2.335938 -0.148438 2.453125 -0.265625 C 2.578125 -0.378906 2.644531 -0.515625 2.65625 -0.671875 L 2.65625 -6.421875 L 0.828125 -6.421875 C 0.679688 -6.410156 0.550781 -6.347656 0.4375 -6.234375 C 0.332031 -6.128906 0.28125 -6 0.28125 -5.84375 L 0.28125 -5.6875 L 0.1875 -5.671875 L 0.1875 -6.875 C 0.28125 -6.832031 0.445312 -6.789062 0.6875 -6.75 C 0.925781 -6.71875 1.144531 -6.703125 1.34375 -6.703125 L 4.578125 -6.703125 C 4.890625 -6.703125 5.144531 -6.722656 5.34375 -6.765625 C 5.550781 -6.816406 5.679688 -6.851562 5.734375 -6.875 L 5.734375 -5.671875 L 5.625 -5.6875 Z M 5.625 -5.84375 "/></g></g></g><g fill="#000000" fill-opacity="1"><g transform="translate(150.669276, 39.949533)"><g><path d="M 0.703125 -0.09375 C 0.867188 -0.09375 1.007812 -0.148438 1.125 -0.265625 C 1.238281 -0.390625 1.300781 -0.535156 1.3125 -0.703125 L 1.3125 -6 C 1.300781 -6.164062 1.238281 -6.304688 1.125 -6.421875 C 1.007812 -6.535156 0.867188 -6.59375 0.703125 -6.59375 L 0.578125 -6.59375 L 0.578125 -6.6875 L 2.671875 -6.6875 L 2.671875 -6.59375 L 2.546875 -6.59375 C 2.378906 -6.59375 2.234375 -6.535156 2.109375 -6.421875 C 1.992188 -6.304688 1.9375 -6.164062 1.9375 -6 L 1.9375 -0.703125 C 1.9375 -0.535156 1.992188 -0.390625 2.109375 -0.265625 C 2.234375 -0.148438 2.378906 -0.09375 2.546875 -0.09375 L 2.671875 -0.09375 L 2.671875 0 L 0.578125 0 L 0.578125 -0.09375 Z M 0.703125 -0.09375 "/></g></g></g><g fill="#000000" fill-opacity="1"><g transform="translate(161.558073, 39.949533)"><g><path d="M 12.375 1.296875 C 12.21875 1.472656 11.992188 1.640625 11.703125 1.796875 C 11.410156 1.960938 11.113281 2.082031 10.8125 2.15625 C 10.507812 2.238281 10.242188 2.28125 10.015625 2.28125 C 9.273438 2.28125 8.578125 2.140625 7.921875 1.859375 C 7.679688 1.753906 7.28125 1.554688 6.71875 1.265625 C 5.46875 0.628906 4.53125 0.253906 3.90625 0.140625 C 2.914062 0.109375 2.113281 -0.222656 1.5 -0.859375 C 0.882812 -1.492188 0.578125 -2.328125 0.578125 -3.359375 C 0.578125 -4.390625 0.894531 -5.222656 1.53125 -5.859375 C 2.164062 -6.503906 2.988281 -6.828125 4 -6.828125 C 5.019531 -6.828125 5.847656 -6.503906 6.484375 -5.859375 C 7.117188 -5.222656 7.4375 -4.382812 7.4375 -3.34375 C 7.4375 -2.457031 7.195312 -1.710938 6.71875 -1.109375 C 6.25 -0.503906 5.617188 -0.117188 4.828125 0.046875 C 5.523438 0.253906 6.582031 0.660156 8 1.265625 C 8.675781 1.546875 9.363281 1.6875 10.0625 1.6875 C 10.457031 1.6875 10.851562 1.640625 11.25 1.546875 C 11.8125 1.398438 12.28125 1.148438 12.65625 0.796875 L 12.703125 0.84375 C 12.648438 0.976562 12.539062 1.128906 12.375 1.296875 Z M 4 -6.546875 C 3.1875 -6.546875 2.53125 -6.25 2.03125 -5.65625 C 1.539062 -5.070312 1.296875 -4.300781 1.296875 -3.34375 C 1.296875 -2.382812 1.546875 -1.613281 2.046875 -1.03125 C 2.546875 -0.445312 3.203125 -0.15625 4.015625 -0.15625 C 4.828125 -0.15625 5.476562 -0.445312 5.96875 -1.03125 C 6.46875 -1.613281 6.71875 -2.382812 6.71875 -3.34375 C 6.71875 -3.976562 6.601562 -4.535156 6.375 -5.015625 C 6.15625 -5.503906 5.835938 -5.878906 5.421875 -6.140625 C 5.015625 -6.410156 4.539062 -6.546875 4 -6.546875 Z M 4 -6.546875 "/></g></g></g><g fill="#000000" fill-opacity="1"><g transform="translate(177.221504, 39.949533)"><g><path d="M 7.03125 -6.59375 L 6.875 -6.59375 C 6.738281 -6.59375 6.617188 -6.550781 6.515625 -6.46875 C 6.421875 -6.382812 6.375 -6.28125 6.375 -6.15625 L 6.375 -2.359375 C 6.375 -1.617188 6.132812 -1.015625 5.65625 -0.546875 C 5.1875 -0.0859375 4.554688 0.140625 3.765625 0.140625 C 2.984375 0.140625 2.347656 -0.0859375 1.859375 -0.546875 C 1.378906 -1.003906 1.140625 -1.609375 1.140625 -2.359375 L 1.140625 -6.125 C 1.140625 -6.3125 1.054688 -6.453125 0.890625 -6.546875 C 0.816406 -6.578125 0.726562 -6.59375 0.625 -6.59375 L 0.484375 -6.59375 L 0.484375 -6.6875 L 2.421875 -6.6875 L 2.421875 -6.59375 L 2.265625 -6.59375 C 2.128906 -6.59375 2.007812 -6.550781 1.90625 -6.46875 C 1.8125 -6.382812 1.765625 -6.273438 1.765625 -6.140625 L 1.765625 -2.484375 C 1.765625 -1.785156 1.945312 -1.222656 2.3125 -0.796875 C 2.6875 -0.367188 3.1875 -0.15625 3.8125 -0.15625 C 4.4375 -0.15625 4.941406 -0.359375 5.328125 -0.765625 C 5.722656 -1.171875 5.921875 -1.703125 5.921875 -2.359375 L 5.921875 -6.140625 C 5.910156 -6.273438 5.859375 -6.382812 5.765625 -6.46875 C 5.671875 -6.550781 5.550781 -6.59375 5.40625 -6.59375 L 5.265625 -6.59375 L 5.265625 -6.6875 L 7.03125 -6.6875 Z M 7.03125 -6.59375 "/></g></g></g><g fill="#000000" fill-opacity="1"><g transform="translate(192.387374, 39.949533)"><g><path d="M 0.703125 -0.09375 C 0.867188 -0.09375 1.007812 -0.148438 1.125 -0.265625 C 1.238281 -0.390625 1.300781 -0.535156 1.3125 -0.703125 L 1.3125 -6.046875 C 1.289062 -6.203125 1.222656 -6.332031 1.109375 -6.4375 C 0.992188 -6.539062 0.859375 -6.59375 0.703125 -6.59375 L 0.578125 -6.59375 L 0.578125 -6.6875 L 3.375 -6.6875 C 3.570312 -6.6875 3.785156 -6.707031 4.015625 -6.75 C 4.253906 -6.789062 4.421875 -6.828125 4.515625 -6.859375 L 4.515625 -5.65625 L 4.421875 -5.65625 L 4.421875 -5.828125 C 4.421875 -5.984375 4.367188 -6.113281 4.265625 -6.21875 C 4.160156 -6.332031 4.03125 -6.390625 3.875 -6.390625 L 1.9375 -6.390625 L 1.9375 -3.4375 L 3.546875 -3.4375 C 3.671875 -3.445312 3.773438 -3.492188 3.859375 -3.578125 C 3.953125 -3.671875 4 -3.785156 4 -3.921875 L 4 -4.046875 L 4.109375 -4.046875 L 4.109375 -2.546875 L 4 -2.546875 L 4 -2.6875 C 4 -2.8125 3.957031 -2.914062 3.875 -3 C 3.789062 -3.09375 3.6875 -3.144531 3.5625 -3.15625 L 1.9375 -3.15625 L 1.9375 -0.296875 L 3.296875 -0.296875 C 3.765625 -0.296875 4.125 -0.398438 4.375 -0.609375 C 4.625 -0.816406 4.832031 -1.128906 5 -1.546875 L 5.09375 -1.546875 L 4.546875 0 L 0.578125 0 L 0.578125 -0.09375 Z M 0.703125 -0.09375 "/></g></g></g></svg>