<svg xmlns="http://www.w3.org/2000/svg" xmlns:xlink="http://www.w3.org/1999/xlink" width="200" zoomAndPan="magnify" viewBox="0 0 150 149.999998" height="200" preserveAspectRatio="xMidYMid meet" version="1.0"><defs><clipPath id="f325a10c7f"><path d="M 27.398438 27.398438 L 122.601562 27.398438 L 122.601562 122.601562 L 27.398438 122.601562 Z M 27.398438 27.398438 " clip-rule="nonzero"/></clipPath><clipPath id="3535c24393"><path d="M 75 27.398438 C 48.710938 27.398438 27.398438 48.710938 27.398438 75 C 27.398438 101.289062 48.710938 122.601562 75 122.601562 C 101.289062 122.601562 122.601562 101.289062 122.601562 75 C 122.601562 48.710938 101.289062 27.398438 75 27.398438 Z M 75 27.398438 " clip-rule="nonzero"/></clipPath><clipPath id="5e9765f8f2"><path d="M 45 46 L 105 46 L 105 103.726562 L 45 103.726562 Z M 45 46 " clip-rule="nonzero"/></clipPath></defs><rect x="-15" width="180" fill="#ffffff" y="-15" height="179.999997" fill-opacity="1"/><rect x="-15" width="180" fill="#ffffff" y="-15" height="179.999997" fill-opacity="1"/><g clip-path="url(#f325a10c7f)"><g clip-path="url(#3535c24393)"><path stroke-linecap="butt" transform="matrix(0.75, 0, 0, 0.75, 27.397445, 27.397442)" fill="none" stroke-linejoin="miter" d="M 63.470077 0.00132754 C 28.417992 0.00132754 0.00132374 28.417996 0.00132374 63.470081 C 0.00132374 98.522167 28.417992 126.938835 63.470077 126.938835 C 98.522163 126.938835 126.938831 98.522167 126.938831 63.470081 C 126.938831 28.417996 98.522163 0.00132754 63.470077 0.00132754 Z M 63.470077 0.00132754 " stroke="#000000" stroke-width="2" stroke-opacity="1" stroke-miterlimit="4"/></g></g><g clip-path="url(#5e9765f8f2)"><path fill="#000000" d="M 102.402344 72.464844 L 100.8125 74.808594 L 66.421875 51.761719 L 68.007812 49.417969 C 68.738281 48.339844 70.214844 48.054688 71.292969 48.777344 L 101.757812 69.195312 C 102.839844 69.917969 103.128906 71.386719 102.402344 72.464844 Z M 91.324219 88.832031 L 93.070312 76.433594 L 97.640625 79.496094 Z M 88.085938 99.585938 C 87.902344 100.871094 86.703125 101.773438 85.414062 101.59375 L 49.039062 96.523438 C 47.746094 96.339844 46.839844 95.144531 47.023438 93.859375 L 49.253906 78 L 90.320312 83.730469 Z M 50.4375 69.609375 C 50.621094 68.320312 51.820312 67.421875 53.109375 67.601562 L 89.484375 72.675781 C 90.78125 72.851562 91.683594 74.046875 91.5 75.335938 L 91.105469 78.128906 L 50.042969 72.40625 Z M 63.25 56.449219 L 83.707031 70.15625 L 56.535156 66.363281 Z M 102.710938 67.789062 L 72.25 47.375 C 70.386719 46.128906 67.851562 46.617188 66.59375 48.472656 L 54.65625 66.101562 L 53.347656 65.921875 C 51.125 65.613281 49.0625 67.160156 48.75 69.375 L 45.339844 93.621094 C 45.023438 95.835938 46.578125 97.886719 48.800781 98.199219 L 85.175781 103.273438 C 87.398438 103.582031 89.460938 102.027344 89.773438 99.820312 L 90.785156 92.664062 L 103.8125 73.410156 C 105.070312 71.5625 104.570312 69.035156 102.710938 67.789062 " fill-opacity="1" fill-rule="nonzero"/></g><path fill="#000000" d="M 68.890625 85.15625 L 86.429688 87.609375 L 86.625 86.222656 L 69.089844 83.777344 L 68.890625 85.15625 " fill-opacity="1" fill-rule="nonzero"/><path fill="#000000" d="M 68.476562 88.148438 L 86.011719 90.59375 L 86.203125 89.207031 L 68.667969 86.761719 L 68.476562 88.148438 " fill-opacity="1" fill-rule="nonzero"/></svg>